<?xml version="1.0" standalone="no"?>
<!DOCTYPE svg PUBLIC "-//W3C//DTD SVG 20010904//EN"
 "http://www.w3.org/TR/2001/REC-SVG-20010904/DTD/svg10.dtd">
<svg version="1.0" xmlns="http://www.w3.org/2000/svg"
 width="880.000000pt" height="880.000000pt" viewBox="0 0 880.000000 880.000000"
 preserveAspectRatio="xMidYMid meet">
<metadata>
Created by potrace 1.11, written by Peter Selinger 2001-2013
</metadata>
<g transform="translate(0.000000,880.000000) scale(0.100000,-0.100000)"
fill="#000000" stroke="none">
<path d="M6500 7290 c-831 -54 -1443 -453 -1649 -1075 -125 -378 -101 -828 61
-1150 222 -441 757 -723 1643 -865 318 -51 425 -70 550 -100 656 -156 927
-414 952 -905 27 -551 -264 -946 -795 -1081 -260 -66 -663 -74 -932 -18 -394
81 -712 312 -869 630 -66 133 -124 339 -137 482 l-7 74 -31 -6 c-17 -3 -172
-26 -343 -52 l-313 -48 0 -35 c0 -58 28 -234 50 -321 68 -268 202 -508 395
-709 206 -214 447 -364 757 -470 497 -170 1221 -182 1733 -29 648 194 1072
627 1194 1218 59 281 44 628 -36 868 -64 192 -153 333 -307 488 -306 305 -778
495 -1556 624 -465 77 -724 146 -935 250 -280 137 -394 298 -426 601 -29 260
35 511 179 698 153 200 394 320 727 362 144 18 456 15 588 -5 350 -54 582
-188 761 -439 96 -134 175 -328 215 -524 11 -52 21 -97 23 -99 5 -4 670 165
677 172 9 9 -31 188 -65 292 -139 428 -434 762 -849 962 -263 128 -529 190
-898 210 -187 10 -189 10 -357 0z"/>
<path d="M10 4400 l0 -2800 345 0 345 0 0 1230 0 1230 546 -2 546 -3 708
-1225 708 -1225 422 -3 c381 -2 422 -1 416 14 -3 8 -336 567 -740 1242 -404
675 -736 1233 -738 1241 -2 10 26 22 96 43 289 84 515 217 721 423 223 222
352 461 417 773 29 141 36 485 14 640 -45 304 -167 538 -390 750 -202 191
-510 341 -836 406 -300 60 -269 59 -1472 63 l-1108 4 0 -2801z m2190 2216
c372 -61 607 -174 762 -368 206 -256 236 -745 67 -1081 -137 -271 -372 -438
-731 -520 -89 -20 -123 -21 -845 -24 l-753 -4 0 1011 0 1011 698 -4 c598 -3
712 -6 802 -21z"/>
</g>
</svg>
