<svg aria-hidden="true" style="position: absolute; width: 0; height: 0; overflow: hidden;" version="1.1" xmlns="http://www.w3.org/2000/svg" xmlns:xlink="http://www.w3.org/1999/xlink">
<defs>
<symbol id="icon-twitter" viewBox="0 0 26 28">
<title>twitter</title>
<path d="M25.312 6.375c-0.688 1-1.547 1.891-2.531 2.609 0.016 0.219 0.016 0.438 0.016 0.656 0 6.672-5.078 14.359-14.359 14.359-2.859 0-5.516-0.828-7.75-2.266 0.406 0.047 0.797 0.063 1.219 0.063 2.359 0 4.531-0.797 6.266-2.156-2.219-0.047-4.078-1.5-4.719-3.5 0.313 0.047 0.625 0.078 0.953 0.078 0.453 0 0.906-0.063 1.328-0.172-2.312-0.469-4.047-2.5-4.047-4.953v-0.063c0.672 0.375 1.453 0.609 2.281 0.641-1.359-0.906-2.25-2.453-2.25-4.203 0-0.938 0.25-1.797 0.688-2.547 2.484 3.062 6.219 5.063 10.406 5.281-0.078-0.375-0.125-0.766-0.125-1.156 0-2.781 2.25-5.047 5.047-5.047 1.453 0 2.766 0.609 3.687 1.594 1.141-0.219 2.234-0.641 3.203-1.219-0.375 1.172-1.172 2.156-2.219 2.781 1.016-0.109 2-0.391 2.906-0.781z"></path>
</symbol>
<symbol id="icon-facebook" viewBox="0 0 16 28">
<title>facebook</title>
<path d="M14.984 0.187v4.125h-2.453c-1.922 0-2.281 0.922-2.281 2.25v2.953h4.578l-0.609 4.625h-3.969v11.859h-4.781v-11.859h-3.984v-4.625h3.984v-3.406c0-3.953 2.422-6.109 5.953-6.109 1.687 0 3.141 0.125 3.563 0.187z"></path>
</symbol>
<symbol id="icon-instagram" viewBox="0 0 24 28">
<title>instagram</title>
<path d="M16 14c0-2.203-1.797-4-4-4s-4 1.797-4 4 1.797 4 4 4 4-1.797 4-4zM18.156 14c0 3.406-2.75 6.156-6.156 6.156s-6.156-2.75-6.156-6.156 2.75-6.156 6.156-6.156 6.156 2.75 6.156 6.156zM19.844 7.594c0 0.797-0.641 1.437-1.437 1.437s-1.437-0.641-1.437-1.437 0.641-1.437 1.437-1.437 1.437 0.641 1.437 1.437zM12 4.156c-1.75 0-5.5-0.141-7.078 0.484-0.547 0.219-0.953 0.484-1.375 0.906s-0.688 0.828-0.906 1.375c-0.625 1.578-0.484 5.328-0.484 7.078s-0.141 5.5 0.484 7.078c0.219 0.547 0.484 0.953 0.906 1.375s0.828 0.688 1.375 0.906c1.578 0.625 5.328 0.484 7.078 0.484s5.5 0.141 7.078-0.484c0.547-0.219 0.953-0.484 1.375-0.906s0.688-0.828 0.906-1.375c0.625-1.578 0.484-5.328 0.484-7.078s0.141-5.5-0.484-7.078c-0.219-0.547-0.484-0.953-0.906-1.375s-0.828-0.688-1.375-0.906c-1.578-0.625-5.328-0.484-7.078-0.484zM24 14c0 1.656 0.016 3.297-0.078 4.953-0.094 1.922-0.531 3.625-1.937 5.031s-3.109 1.844-5.031 1.937c-1.656 0.094-3.297 0.078-4.953 0.078s-3.297 0.016-4.953-0.078c-1.922-0.094-3.625-0.531-5.031-1.937s-1.844-3.109-1.937-5.031c-0.094-1.656-0.078-3.297-0.078-4.953s-0.016-3.297 0.078-4.953c0.094-1.922 0.531-3.625 1.937-5.031s3.109-1.844 5.031-1.937c1.656-0.094 3.297-0.078 4.953-0.078s3.297-0.016 4.953 0.078c1.922 0.094 3.625 0.531 5.031 1.937s1.844 3.109 1.937 5.031c0.094 1.656 0.078 3.297 0.078 4.953z"></path>
</symbol>
<symbol id="icon-youtube" viewBox="0 0 142 32">
<title>youtube</title>
<path d="M70.836 25.76c0.248-0.649 0.373-1.707 0.373-3.177v-6.193c0-1.427-0.125-2.469-0.373-3.129-0.249-0.659-0.687-0.989-1.313-0.989-0.605 0-1.033 0.33-1.281 0.989-0.249 0.66-0.373 1.702-0.373 3.129v6.193c0 1.47 0.118 2.529 0.357 3.177s0.669 0.973 1.297 0.973c0.627 0 1.065-0.324 1.313-0.973zM65.81 28.873c-0.897-0.605-1.535-1.545-1.913-2.821s-0.567-2.972-0.567-5.090v-2.886c0-2.14 0.216-3.859 0.649-5.155s1.107-2.243 2.026-2.837c0.919-0.594 2.124-0.892 3.615-0.892 1.47 0 2.647 0.303 3.534 0.908s1.534 1.551 1.945 2.837c0.41 1.286 0.616 2.999 0.616 5.139v2.886c0 2.119-0.2 3.821-0.6 5.107s-1.049 2.227-1.945 2.821c-0.897 0.594-2.113 0.891-3.648 0.891-1.578 0-2.816-0.303-3.712-0.908z"></path>
<path d="M135.242 12.644c-0.227 0.281-0.378 0.741-0.454 1.378s-0.113 1.605-0.113 2.902v1.427h3.274v-1.427c0-1.275-0.043-2.242-0.129-2.902s-0.243-1.124-0.47-1.394c-0.227-0.27-0.578-0.405-1.054-0.405s-0.827 0.141-1.054 0.422zM134.675 21.009v1.005c0 1.276 0.037 2.232 0.113 2.87s0.232 1.102 0.47 1.394c0.238 0.291 0.605 0.438 1.102 0.438 0.67 0 1.129-0.259 1.378-0.779s0.384-1.383 0.405-2.594l3.859 0.227c0.021 0.173 0.032 0.411 0.032 0.713 0 1.838-0.503 3.21-1.508 4.118s-2.426 1.362-4.264 1.362c-2.205 0-3.751-0.691-4.637-2.075-0.887-1.383-1.329-3.523-1.329-6.419v-3.47c0-2.983 0.459-5.16 1.378-6.533s2.491-2.059 4.717-2.059c1.535 0 2.712 0.281 3.534 0.843s1.4 1.438 1.735 2.626c0.335 1.189 0.503 2.832 0.503 4.929v3.404h-7.489z"></path>
<path d="M54.915 20.637l-5.090-18.384h4.442l1.783 8.333c0.454 2.054 0.789 3.805 1.005 5.253h0.13c0.151-1.038 0.487-2.777 1.005-5.22l1.848-8.365h4.442l-5.155 18.384v8.82h-4.41v-8.82z"></path>
<path d="M90.162 9.581v19.875h-3.502l-0.389-2.432h-0.097c-0.952 1.837-2.378 2.756-4.28 2.756-1.319 0-2.291-0.432-2.918-1.297-0.627-0.864-0.94-2.215-0.94-4.053v-14.85h4.474v14.59c0 0.887 0.097 1.519 0.292 1.897s0.519 0.567 0.973 0.567c0.389 0 0.762-0.119 1.119-0.357s0.621-0.54 0.795-0.907v-15.79h4.474z"></path>
<path d="M113.113 9.581v19.875h-3.502l-0.389-2.432h-0.097c-0.951 1.837-2.378 2.756-4.28 2.756-1.319 0-2.291-0.432-2.918-1.297-0.627-0.864-0.94-2.215-0.94-4.053v-14.85h4.474v14.59c0 0.887 0.097 1.519 0.292 1.897s0.519 0.567 0.973 0.567c0.389 0 0.762-0.119 1.119-0.357s0.621-0.54 0.794-0.907v-15.79h4.475z"></path>
<path d="M102.321 5.852h-4.442v23.604h-4.377v-23.604h-4.442v-3.599h13.261z"></path>
<path d="M123.82 20.865c0 1.448-0.060 2.583-0.179 3.404-0.119 0.822-0.319 1.405-0.6 1.751s-0.659 0.519-1.134 0.519c-0.368 0-0.709-0.086-1.022-0.259s-0.567-0.432-0.762-0.778v-11.283c0.151-0.54 0.411-0.983 0.778-1.329 0.367-0.345 0.767-0.519 1.2-0.519 0.454 0 0.805 0.178 1.054 0.535s0.421 0.957 0.519 1.8c0.097 0.843 0.146 2.043 0.146 3.599v2.561zM127.922 12.758c-0.271-1.253-0.708-2.161-1.313-2.723s-1.438-0.843-2.497-0.843c-0.821 0-1.589 0.233-2.302 0.697s-1.265 1.076-1.654 1.832h-0.033v-10.473h-4.312v28.208h3.696l0.454-1.881h0.097c0.345 0.67 0.864 1.2 1.556 1.589s1.459 0.583 2.302 0.583c1.513 0 2.626-0.697 3.339-2.091s1.070-3.572 1.070-6.534v-3.145c0-2.226-0.135-3.966-0.405-5.22z"></path>
<path d="M44.392 4.956c0.947 3.536 0.947 10.913 0.947 10.913s0 7.377-0.947 10.913c-0.521 1.951-2.058 3.487-4.009 4.009-3.536 0.947-17.714 0.947-17.714 0.947s-14.178 0-17.714-0.947c-1.951-0.521-3.487-2.058-4.009-4.009-0.947-3.536-0.947-10.913-0.947-10.913s0-7.377 0.947-10.913c0.521-1.951 2.058-3.487 4.009-4.009 3.536-0.947 17.714-0.947 17.714-0.947s14.178 0 17.714 0.947c1.951 0.521 3.487 2.058 4.009 4.009zM18.136 22.67l11.779-6.801-11.779-6.801v13.602z"></path>
</symbol>
<symbol id="icon-bbc" viewBox="0 0 112 32">
<title>bbc</title>
<path d="M0.217 0.034h33.809v31.86h-33.809v-31.86zM39.204 31.894v-31.86h33.809v31.86h-33.809zM78.191 31.894v-31.86h33.809v31.86h-33.809zM21 15.239c0 0 2.949-1.257 2.923-4.59 0 0 0.448-5.461-6.789-6.128h-8.032v22.897h9.205c0 0 7.692 0.026 7.692-6.462 0 0 0.179-4.41-5-5.718zM13.179 8.086h3.282c3.41 0.179 3.282 2.718 3.282 2.718 0 3.154-3.769 3.205-3.769 3.205h-2.795v-5.923h-0zM21.795 20.624c0 3.462-4.308 3.256-4.308 3.256h-4.308v-6.256h4.308c4.436-0.026 4.308 3 4.308 3zM59.974 15.239c0 0 2.949-1.257 2.923-4.59 0 0 0.448-5.461-6.789-6.128h-8.032v22.897h9.205c0 0 7.692 0.026 7.692-6.462-0 0 0.179-4.41-5-5.718zM52.154 8.086h3.282c3.41 0.179 3.282 2.718 3.282 2.718 0 3.154-3.769 3.205-3.769 3.205h-2.795v-5.923zM60.769 20.624c0 3.462-4.308 3.256-4.308 3.256h-4.308v-6.256h4.308c4.436-0.026 4.308 3 4.308 3zM105.102 6.163c-3.744-1.564-6.333-1.821-6.333-1.82-4.333-0.41-6.744 0.513-6.744 0.513-9.026 2.77-8.744 11.109-8.744 11.109 0.256 8.109 7.026 10.583 7.026 10.583 8.051 3.179 15-0.949 15-0.949v-4.385c-5.179 3.308-9 2.846-9 2.846-9.102-0.436-8.795-8.096-8.795-8.096 0.385-8.326 8.897-8.16 8.897-8.16 4.564 0.051 8.692 2.59 8.692 2.59v-4.231z"></path>
</symbol>
<symbol id="icon-conde-nast" viewBox="0 0 215 32">
<title>conde-nast</title>
<path d="M111.2 3.886l-0.457-1.371 0.457-2.4-0.229-0.114-6.286 5.257v0.114l6.514-1.486z"></path>
<path d="M15.2 28.8c-1.101 1.129-2.637 1.829-4.337 1.829-0.002 0-0.004 0-0.006 0h0c-5.029 0-6.286-4.457-6.286-9.714s1.143-9.714 6.171-9.714c0.038-0.001 0.083-0.002 0.128-0.002 1.591 0 3.017 0.707 3.981 1.823l0.006 0.007 2.857 4.343h0.229v-6.514h-0.229l-2.629 1.371c-1.163-0.991-2.682-1.595-4.342-1.6h-0.001c-4.914 0-10.743 3.771-10.743 10.4s5.714 10.4 10.857 10.4c1.752-0.013 3.351-0.66 4.58-1.722l-0.009 0.008 2.514 1.486h0.229v-6.857h-0.229z"></path>
<path d="M33.943 10.514c-4.8 0-10.514 4.114-10.514 10.4s5.714 10.4 10.514 10.4 10.514-4.114 10.514-10.4-5.6-10.4-10.514-10.4zM33.943 30.629c-4.8 0-6.057-4.229-6.057-9.714s1.257-9.714 6.057-9.714 6.057 4.229 6.057 9.714-1.143 9.714-6.057 9.714z"></path>
<path d="M62.629 11.429h2.514v12.571h-0.114l-8.914-13.143h-8v0.571h2.4v18.971h-2.4v0.571h5.714v-0.571h-2.514v-18.971l14.4 19.886h0.229v-19.886h2.4v-0.571h-5.714v0.571z"></path>
<path d="M81.714 10.857h-9.029v0.571h2.629v18.971h-2.629v0.571h9.029c4.457 0 11.886-1.943 11.886-10.171s-7.429-9.943-11.886-9.943zM81.486 30.4h-2.171v-18.971h2.171c5.257 0 7.657 3.771 7.657 9.486s-2.4 9.486-7.657 9.486z"></path>
<path d="M111.543 30.4h-7.543v-9.943h3.771c1.044 1.111 1.924 2.393 2.59 3.796l0.038 0.090h0.229v-8.343h-0.229c-0.705 1.493-1.585 2.775-2.636 3.894l0.007-0.008h-3.771v-8.457h6.743c1.943 1.257 3.657 4.8 3.657 4.8h0.229v-5.371h-17.257v0.571h2.629v18.971h-2.629v0.571h17.829v-6.743h-0.229c-0.891 2.359-2.048 4.399-3.468 6.224l0.040-0.053z"></path>
<path d="M142.4 11.429h2.514v12.571h-0.114l-8.914-13.143h-8.114v0.571h2.514v18.971h-2.514v0.571h5.714v-0.571h-2.4v-18.971l14.4 19.886h0.114v-19.886h2.514v-0.571h-5.714v0.571z"></path>
<path d="M161.029 10.171h-0.229l-8.571 20.114h-2.4v0.571h5.371v-0.571h-2.286l3.086-7.2h6.514l3.314 7.2h-2.629v0.571h9.371v-0.571h-2.4zM156.343 22.629l2.971-6.971 3.086 6.971h-6.057z"></path>
<path d="M186.743 19.2l-4-1.371c-1.943-0.686-3.543-1.6-3.543-3.543s1.714-3.2 4.343-3.2c0.108-0.010 0.234-0.015 0.362-0.015 1.255 0 2.386 0.533 3.179 1.384l0.002 0.003 2.857 4.343h0.229v-6.4h-0.229l-2.629 1.371c-0.977-0.852-2.264-1.372-3.672-1.372-0.035 0-0.070 0-0.104 0.001l0.005-0c-0.103-0.006-0.223-0.010-0.344-0.010-3.309 0-5.997 2.653-6.056 5.947l-0 0.006c0 2.857 2.057 4.343 4.229 5.143l4 1.486c2.171 0.8 3.543 1.714 3.543 3.771s-1.371 3.771-4.8 3.771c-1.742-0.087-3.321-0.719-4.588-1.727l0.016 0.013-2.971-4.914h-0.343v6.971h0.343l2.514-1.371c1.322 1.012 2.981 1.645 4.784 1.714l0.016 0c4.343 0 7.2-3.086 7.2-6.514s-1.829-4.686-4.343-5.486z"></path>
<path d="M195.771 10.857v6.286h0.229c1.062-2.179 2.242-4.053 3.596-5.785l-0.053 0.070h3.543v18.971h-3.2v0.571h10.4v-0.571h-3.2v-18.971h3.543c1.301 1.661 2.481 3.535 3.459 5.526l0.084 0.188h0.229v-6.171h-18.629z"></path>
</symbol>
<symbol id="icon-nike" viewBox="0 0 89 32">
<title>nike</title>
<path d="M10.547 31.374c-2.596-0.103-4.719-0.813-6.38-2.132-0.317-0.252-1.072-1.008-1.325-1.326-0.673-0.847-1.131-1.671-1.436-2.585-0.94-2.814-0.456-6.507 1.383-10.56 1.575-3.47 4.004-6.911 8.244-11.677 0.624-0.701 2.484-2.752 2.496-2.752 0.004 0-0.097 0.176-0.224 0.389-1.102 1.846-2.045 4.021-2.559 5.904-0.825 3.021-0.726 5.613 0.292 7.624 0.702 1.385 1.905 2.584 3.258 3.248 2.368 1.16 5.836 1.256 10.071 0.281 0.292-0.068 14.739-3.903 32.105-8.523s31.577-8.398 31.58-8.395c0.005 0.004-40.347 17.271-61.294 26.228-3.317 1.418-4.204 1.776-5.764 2.324-3.987 1.4-7.558 2.068-10.444 1.953z"></path>
</symbol>
<symbol id="icon-refinery-29" viewBox="0 0 50 32">
<title>refinery-29</title>
<path d="M29.199 6.299c-0.572 0-1.076 0.155-1.502 0.426-0.485-1.677-1.948-2.626-4.167-2.626h-3.508v1.221h3.605c1.841 0 2.927 0.998 2.927 2.743s-1.085 2.743-2.927 2.743h-0.029l0.203-0.3c0.446-0.669 0.853-1.328 0.853-1.948 0-1.279-0.814-2.248-2.403-2.248-1.376 0-2.413 1.056-2.413 2.297h1.308c0-0.62 0.407-1.076 1.105-1.076 0.746 0 1.095 0.436 1.095 1.066 0 0.485-0.31 0.969-0.649 1.463l-0.523 0.756h-2.151v1.221h1.318l-2.297 3.363h5.505v-1.231h-3.247l1.463-2.142h0.766c0.126 0 0.252 0 0.378-0.010l3.847 5.020h1.657l-1.27-1.648 2.413-3.528c0.62-0.872 1.347-1.822 1.347-2.917-0.010-1.444-1.114-2.646-2.704-2.646zM27.329 14.343l-1.987-2.568c0.727-0.233 1.318-0.62 1.744-1.153 0.475 0.601 1.221 0.979 2.122 0.979 0.010 0 0.058 0 0.068 0l-1.948 2.743zM29.199 10.389c-0.833 0-1.376-0.63-1.376-1.434 0-0.068 0-0.126 0.010-0.194 0-0.010 0-0.019 0-0.039 0.097-0.688 0.611-1.202 1.357-1.202 0.833 0 1.376 0.63 1.376 1.434 0.010 0.804-0.533 1.434-1.366 1.434z"></path>
<path d="M25.071 0c-5.679 0-10.302 4.623-10.302 10.302s4.623 10.302 10.302 10.302 10.302-4.623 10.302-10.311c0-5.679-4.623-10.292-10.302-10.292zM25.071 19.382c-5.010 0-9.081-4.070-9.081-9.081s4.070-9.081 9.081-9.081 9.081 4.070 9.081 9.081c0 5.001-4.070 9.081-9.081 9.081z"></path>
<path d="M3.421 28.967c0.32-0.3 0.523-0.727 0.523-1.202s-0.204-0.901-0.523-1.202c-0.291-0.271-0.678-0.436-1.279-0.436h-2.142v5.873h1.134v-2.597h0.407l2.093 2.597h1.396l-2.2-2.694c0.242-0.078 0.436-0.194 0.591-0.339zM2.646 28.22c-0.097 0.107-0.242 0.174-0.572 0.174h-0.94v-1.26h0.94c0.329 0 0.475 0.078 0.572 0.184s0.165 0.281 0.165 0.455c0 0.165-0.068 0.329-0.165 0.446z"></path>
<path d="M6.939 29.354h1.803v-1.008h-1.803v-1.211h2.384v-1.008h-3.518v5.873h3.605v-1.008h-2.471z"></path>
<path d="M10.893 32h1.134v-2.646h1.803v-1.008h-1.803v-1.211h2.384v-1.008h-3.518z"></path>
<path d="M15.603 26.127h1.134v5.873h-1.134v-5.873z"></path>
<path d="M22.425 29.955l-3.276-3.828h-0.795v5.873h1.134v-3.828l3.276 3.828h0.795v-5.873h-1.134z"></path>
<path d="M26.418 29.354h1.803v-1.008h-1.803v-1.211h2.384v-1.008h-3.518v5.873h3.605v-1.008h-2.471z"></path>
<path d="M33.793 28.967c0.32-0.3 0.523-0.727 0.523-1.202s-0.203-0.901-0.523-1.202c-0.291-0.271-0.678-0.436-1.279-0.436h-2.142v5.873h1.134v-2.597h0.407l2.084 2.597h1.405l-2.2-2.694c0.242-0.078 0.426-0.194 0.591-0.339zM33.008 28.22c-0.097 0.107-0.242 0.174-0.572 0.174h-0.94v-1.26h0.94c0.33 0 0.475 0.078 0.572 0.184s0.165 0.281 0.165 0.455c0.010 0.165-0.058 0.329-0.165 0.446z"></path>
<path d="M37.757 28.191l-1.299-2.064h-1.289l2.016 3.217v2.655h1.134v-2.655l2.006-3.217h-1.289z"></path>
<path d="M44.211 29.49c0.407-0.533 0.64-0.988 0.64-1.715v0c0-1.076-0.911-1.851-1.919-1.851h-0.039c-1.008 0-1.851 0.746-1.919 1.832h1.134c0-0.417 0.368-0.804 0.804-0.804 0.446 0 0.804 0.388 0.804 0.804 0 0.31-0.039 0.63-0.465 1.173l-2.52 3.072h4.332v-1.027h-2.084l1.231-1.483z"></path>
<path d="M48 25.924c-1.144 0-2.084 0.94-2.084 2.103 0 1.202 0.94 2.064 2.054 2.064h0.078l-1.114 1.909h1.25l1.386-2.374c0.31-0.533 0.581-1.056 0.581-1.648 0-1.26-1.056-2.055-2.151-2.055zM48.029 29.073c-0.581 0-1.056-0.475-1.056-1.056s0.475-1.056 1.056-1.056 1.056 0.475 1.056 1.056c0 0.581-0.475 1.056-1.056 1.056z"></path>
</symbol>
<symbol id="icon-the-guardian" viewBox="0 0 97 32">
<title>the-guardian</title>
<path d="M22.124 17.058l1.697-0.878v-13.35h-1.285l-3.137 4.161h-0.353l0.198-4.679h13.598l0.198 4.682h-0.376l-3.071-4.161h-1.321v13.314l1.707 0.901v0.452h-7.856v-0.442zM34.368 16.471v-14.79l-1.321-0.528v-0.274l4.762-0.878h0.522v7.020l0.112-0.112c1.141-0.97 2.587-1.507 4.085-1.516 2.087 0 3.008 1.179 3.008 3.375v7.704l1.116 0.608v0.423h-6.231v-0.423l1.119-0.611v-7.727c0-1.209-0.528-1.691-1.516-1.691-0.596-0.013-1.179 0.18-1.651 0.545v8.896l1.1 0.608v0.403h-6.234v-0.403l1.129-0.627zM50.039 11.927c0.129 2.444 1.225 4.336 3.82 4.336 1.255 0 2.146-0.581 2.972-1.024v0.482c-1.124 1.371-2.811 2.156-4.583 2.133-4.022 0-6.076-2.235-6.076-6.105 0-3.784 2.249-6.142 5.881-6.142 3.418 0 5.191 1.707 5.191 6.208v0.116l-7.205-0.003zM49.973 11.362l3.546-0.215c0-3.028-0.518-5.039-1.559-5.039-1.109 0.003-1.988 2.338-1.988 5.257v-0.003zM0 23.421c0-6.436 4.26-8.727 9.005-8.727 2.014 0 3.913 0.33 4.976 0.763l0.092 4.491h-0.452l-2.784-4.345c-0.56-0.224-1.162-0.321-1.763-0.284-2.523 0-3.814 2.916-3.771 7.694 0.046 5.716 1.040 8.315 3.355 8.315 0.474 0.016 0.947-0.063 1.39-0.231v-6.122l-1.529-0.868v-0.522h7.383v0.548l-1.506 0.842v6.043c-1.792 0.635-3.68 0.955-5.58 0.948-5.392 0-8.816-2.5-8.816-8.542v0zM15.216 20.42v-0.373l4.953-0.875 0.545 0.046v9.787c0 1.179 0.568 1.542 1.519 1.542 0.625 0.009 1.22-0.271 1.611-0.759v-8.78l-1.36-0.591v-0.383l4.953-0.875 0.499 0.046v11.227l1.337 0.561v0.357l-4.857 0.594-0.499-0.046v-1.476h-0.135c-0.998 0.974-2.328 1.533-3.721 1.565-2.381 0-3.47-1.407-3.47-3.54v-7.439l-1.374-0.588zM46.344 19.152l0.409 0.046v3.632h0.112c0.532-2.642 1.701-3.632 3.13-3.632 0.208-0.010 0.415 0.022 0.611 0.092v3.678c-0.335-0.071-0.678-0.101-1.020-0.089-0.929-0.024-1.852 0.16-2.701 0.538v7.162l1.129 0.627v0.492h-6.439v-0.489l1.159-0.631v-9.777l-1.36-0.406v-0.33l4.97-0.915zM58.803 19.456v-3.82l-1.36-0.476v-0.3l5.013-0.921 0.475 0.069v16.408l1.384 0.502v0.423l-4.953 0.66-0.386-0.046v-1.351h-0.112c-0.856 0.907-2.055 1.41-3.302 1.384-2.701 0-4.672-2.064-4.672-6.274 0-4.448 2.292-6.634 5.762-6.634 0.737-0.038 1.473 0.091 2.153 0.376v0zM58.803 29.966v-9.824c-0.38-0.322-0.875-0.476-1.37-0.426-1.341 0.046-2.169 2.070-2.169 5.68 0 3.243 0.594 5.059 2.381 4.996 0.425 0.003 0.837-0.149 1.159-0.426v0zM69.746 19.152l0.429 0.046v11.382l1.133 0.627v0.492h-6.439v-0.489l1.156-0.631v-9.596l-1.384-0.545v-0.38l5.105-0.908zM70.198 16.074c-0.038 1.18-1.018 2.111-2.199 2.087-0.778 0.031-1.51-0.367-1.908-1.036s-0.398-1.502 0-2.171c0.398-0.669 1.13-1.067 1.908-1.036 1.199-0.015 2.183 0.944 2.199 2.143v0.013zM84.658 30.58v-9.701l-1.36-0.476v-0.469l4.953-0.921 0.499 0.046v1.453h0.135c1.177-1.006 2.672-1.561 4.22-1.565 2.156 0 3.107 1.020 3.107 3.302v8.311l1.156 0.66v0.479h-6.449v-0.489l1.156-0.631v-8.126c0-1.248-0.545-1.747-1.565-1.747-0.612-0.017-1.211 0.174-1.701 0.542v9.328l1.136 0.627v0.495h-6.442v-0.489l1.156-0.631zM77.651 24.485v-1.628c0-2.45-0.535-3.253-2.051-3.253-0.171 0.004-0.342 0.020-0.512 0.046l-2.698 3.655h-0.38v-3.368c1.458-0.5 2.986-0.766 4.527-0.786 3.302 0 5.214 0.915 5.214 3.678v7.925l1.182 0.31v0.31c-0.751 0.386-1.586 0.578-2.43 0.558-1.628 0-2.407-0.535-2.764-1.426h-0.116c-0.69 0.934-1.671 1.469-3.21 1.469-1.961 0-3.302-1.225-3.302-3.342 0-2.051 1.271-3.163 3.857-3.655l2.681-0.495zM77.651 29.966v-4.904l-0.826 0.066c-1.294 0.112-1.76 0.938-1.76 2.764 0 1.981 0.66 2.496 1.559 2.496 0.391 0.036 0.774-0.122 1.027-0.423v0zM35.844 24.485v-1.628c0-2.45-0.535-3.253-2.051-3.253-0.171 0.004-0.342 0.020-0.512 0.046l-2.698 3.652h-0.376v-3.365c1.457-0.5 2.984-0.765 4.524-0.786 3.302 0 5.214 0.915 5.214 3.678v7.925l1.182 0.31v0.31c-0.751 0.386-1.586 0.578-2.43 0.558-1.628 0-2.407-0.535-2.764-1.426h-0.112c-0.69 0.934-1.671 1.469-3.21 1.469-1.961 0-3.302-1.225-3.302-3.342 0-2.051 1.271-3.163 3.857-3.655l2.678-0.495zM35.844 29.966v-4.904l-0.825 0.066c-1.294 0.112-1.76 0.938-1.76 2.764 0 1.981 0.66 2.496 1.559 2.496 0.391 0.036 0.774-0.122 1.027-0.423z"></path>
</symbol>
<symbol id="icon-the-new-york-times" viewBox="0 0 226 32">
<title>the-new-york-times</title>
<path d="M6.476 17.889v-8.488l-2.553 1.139c-0.001 0-0.651 1.458-0.537 3.573 0.090 1.652 1.014 3.629 1.723 4.458l1.366-0.681zM13.951 0.413c0.63 0.056 1.618 0.365 2.363 1.018 0.791 0.768 0.972 1.935 0.694 2.994-0.247 0.944-0.523 1.435-1.486 2.087-0.974 0.657-2.151 0.602-2.151 0.602v4.091l1.99 1.611-1.991 1.606 0 5.573c0 0 1.994-1.143 3.231-3.703 0 0 0.051-0.139 0.167-0.403 0.11 0.685 0.047 2.074-0.729 3.855-0.584 1.342-1.647 2.633-2.98 3.369-2.363 1.31-4.135 1.435-6.034 1.041-2.224-0.458-4.244-1.708-5.623-3.888-0.969-1.532-1.402-3.318-1.363-5.239 0.078-3.772 2.884-7.025 6.122-8.238 0.394-0.148 0.552-0.245 1.111-0.296-0.258 0.176-0.556 0.402-0.921 0.643-1.043 0.685-1.937 2.050-2.318 3.101l6.287-2.804v8.789l-5.070 2.541c0.578 0.8 2.333 2.014 3.835 2.184 2.554 0.283 4.053-0.833 4.053-0.833l-0-5.693-1.979-1.606 1.981-1.606v-4.096c-1.079-0.125-2.391-0.481-3.158-0.671-1.127-0.278-4.887-1.333-5.478-1.421s-1.32-0.060-1.76 0.333c-0.441 0.398-0.714 1.097-0.526 1.726 0.106 0.356 0.351 0.565 0.537 0.768 0 0-0.217-0.019-0.61-0.254-0.71-0.426-1.25-1.259-1.315-2.286-0.084-1.347 0.471-2.56 1.581-3.374 0.965-0.62 2.056-1.018 3.326-0.838 1.851 0.264 4.341 1.31 6.558 1.842 0.859 0.208 1.524 0.278 2.128-0.074 0.281-0.204 0.776-0.727 0.372-1.421-0.472-0.815-1.377-0.796-2.143-0.94 0.659-0.138 0.804-0.138 1.3-0.093z"></path>
<path d="M38.417 15.677l-2.856 2.093v-6.961l2.856 4.869zM38.335 8.989c0 0-1.926 1.166-3.222 1.939-1.295 0.768-3.033 1.615-3.033 1.615v8.099l-1.159 0.931 0.153 0.18 1.13-0.911 3.543 3.203 6.157-4.878-0.146-0.176-3.403 2.67-2.797-2.619 0-0.977 5.618-4.133-2.844-4.943z"></path>
<path d="M22.196 27.090c0.808 0.199 2.235 0.31 3.954-0.551 1.904-0.953 2.861-2.976 2.848-5.049l0.081-2.939 0.001-6.419 1.217-0.93-0.142-0.18-1.198 0.903-2.764-3.073-3.546 3.045v-10.348l-4.431 3.425c0.197 0.125 0.825 0.241 0.844 1.125v14.496l-1.876 1.393 0.128 0.194 0.906-0.676 2.523 2.346 3.972-3.16-0.144-0.181-0.934 0.74-0.988-0.981 0.009-8.076 1.157-0.986 1.726 2.143c0 0-0.003 5.23 0.001 6.966-0.013 1.851-0.019 4.16-0.992 5.276-0.972 1.12-1.362 1.209-2.352 1.5z"></path>
<path d="M49.764 26.359c-1.587-0.181-2.254-1.143-2.235-1.902 0.012-0.487 0.453-1.44 1.418-1.569 0.964-0.134 1.95 0.319 2.782 1.296l3.665-4.050-0.177-0.157-0.984 1.102c-1-1.139-2.42-1.856-3.833-2.064v-12.338l9.521 17.342c0 0 0.091 0.199 0.483 0.199 0.337 0 0.256-0.273 0.256-0.273l-0.002-17.453c0.773-0.032 1.954-0.458 2.528-1.046 1.833-1.884 1.084-3.939 0.883-4.138-0.112 0.898-0.802 1.8-1.955 1.805-1.512 0.005-2.434-1.111-2.434-1.111l-3.663 4.175 0.175 0.157 1.049-1.199c1.282 1.18 2.217 1.291 3.185 1.356l-0.001 10.126-7.062-12.83c-0.638-1.060-1.613-1.99-3.139-2.004-1.755-0.009-3.010 1.536-3.16 2.869-0.17 1.504 0.018 1.851 0.018 1.851s0.258-1.675 1.295-1.661c0.931 0.014 1.416 0.87 1.789 1.513v3.716c-0.96 0.065-3.461 0.176-3.613 2.777-0.011 0.967 0.59 1.981 1.116 2.323 0.677 0.444 1.204 0.435 1.204 0.435s-0.81-0.43-0.568-1.282c0.217-0.763 1.805-0.889 1.862-0.569l-0 5.244c-0.764-0.009-3.21 0.074-4.313 2.171-0.665 1.268-0.626 2.685 0.085 3.684 0.579 0.815 1.772 1.856 3.825 1.505z"></path>
<path d="M69.954 15.677l-2.857 2.093v-6.961l2.857 4.869zM69.872 8.989c0 0-1.927 1.166-3.222 1.939-1.295 0.768-3.032 1.615-3.032 1.615v8.099l-1.159 0.931 0.153 0.18 1.13-0.911 3.543 3.203 6.157-4.878-0.146-0.176-3.402 2.67-2.797-2.619 0-0.977 5.618-4.133-2.843-4.943z"></path>
<path d="M78.478 24.105l-3.019-2.509-1.326 0.963-0.135-0.19 1.349-0.986v-7.012c0.065-2.888-2.645-2.171-2.498-5.235 0.065-1.347 1.369-2.365 2.026-2.703 0.704-0.357 1.467-0.357 1.467-0.357s-1.236 0.773-0.936 1.884c0.462 1.712 3.39 1.865 3.445 4.147v7.956l2.162 1.731 0.568-0.444v-8.613l-1.165-1.157 3.001-2.657 2.742 2.43-1.046 1.134v7.632l2.568 2.12 0.456-0.292v-9.187l-1.168-1.092 3.007-2.749 2.811 2.323 1.123-0.995 0.152 0.176-2.527 2.222v7.488l-6.467 3.989-3.308-2.62-3.281 2.602z"></path>
<path d="M210.862 15.677l-2.857 2.093v-6.961l2.857 4.869zM210.779 8.989c0 0-1.927 1.166-3.221 1.939-1.296 0.768-3.033 1.615-3.033 1.615v8.099l-1.159 0.931 0.154 0.18 1.13-0.911 3.543 3.203 6.157-4.878-0.145-0.176-3.403 2.67-2.798-2.619v-0.977l5.619-4.133-2.845-4.943z"></path>
<path d="M181.873 12.377l0.151 0.176 1.16-1 1.721 1.949v6.693l-0.836 0.763 2.682 3.032 2.752-2.712-1.131-1.171v-8.094l0.684-0.546 1.903 2.221v6.674l-0.716 0.713 2.526 2.842 2.701-2.703-0.992-1.042-0.026-8.127 0.73-0.593 1.984 2.184v6.637l-0.653 0.652 2.789 3.041 3.744-3.457-0.159-0.171-0.909 0.837-1.394-1.546v-7.576l1.346-1.023-0.14-0.185-1.348 1.023-2.547-2.856-3.643 2.879-2.551-2.777-3.518 2.754-2.575-2.74-3.736 3.249z"></path>
<path d="M174.25 12.169l0.151 0.176 0.98-0.847 1.533 1.814v7.65l-1.081 0.944 0.151 0.176 1.135-0.967 2.471 2.851 3.572-3.188-0.15-0.176-1.052 0.925-1.477-1.703v-7.479l1.245-1.078-0.15-0.176-1.183 1.018-2.601-3.032-3.543 3.092z"></path>
<path d="M175.28 5.833l2.689-2.462 2.187 2.425-2.701 2.453-2.174-2.416z"></path>
<path d="M164.189 17.889v-8.488l-2.553 1.139c0 0-0.651 1.458-0.538 3.573 0.089 1.652 1.014 3.629 1.724 4.458l1.367-0.681zM171.664 0.413c0.63 0.056 1.619 0.365 2.364 1.018 0.792 0.768 0.972 1.935 0.694 2.994-0.247 0.944-0.522 1.435-1.487 2.087-0.973 0.657-2.151 0.602-2.151 0.602v4.091l1.991 1.611-1.991 1.606v5.573c0 0 1.994-1.143 3.231-3.703 0 0 0.051-0.139 0.167-0.403 0.11 0.685 0.048 2.074-0.728 3.855-0.584 1.342-1.647 2.633-2.98 3.369-2.362 1.31-4.134 1.435-6.033 1.041-2.225-0.458-4.244-1.708-5.623-3.888-0.969-1.532-1.404-3.318-1.363-5.239 0.077-3.772 2.883-7.025 6.123-8.238 0.394-0.148 0.551-0.245 1.111-0.296-0.258 0.176-0.556 0.402-0.922 0.643-1.043 0.685-1.937 2.050-2.319 3.101l6.286-2.804v8.789l-5.069 2.541c0.578 0.8 2.333 2.014 3.835 2.184 2.553 0.283 4.052-0.833 4.052-0.833v-5.693l-1.979-1.606 1.979-1.606v-4.096c-1.079-0.125-2.39-0.481-3.156-0.671-1.128-0.278-4.888-1.333-5.478-1.421s-1.319-0.060-1.76 0.333c-0.441 0.398-0.714 1.097-0.526 1.726 0.106 0.356 0.351 0.565 0.537 0.768 0 0-0.217-0.019-0.611-0.254-0.71-0.426-1.25-1.259-1.315-2.286-0.083-1.347 0.472-2.56 1.582-3.374 0.965-0.62 2.056-1.018 3.326-0.838 1.851 0.264 4.34 1.31 6.558 1.842 0.859 0.208 1.524 0.278 2.127-0.074 0.281-0.204 0.776-0.727 0.372-1.421-0.472-0.815-1.376-0.796-2.143-0.94 0.659-0.138 0.803-0.138 1.298-0.093z"></path>
<path d="M218.793 10.554v4.022l1.339 1.166c0 0 2.908-2.328 3.964-4.485 0 0-1.307 1.773-3.066 1.231-1.473-0.449-2.237-1.935-2.237-1.935zM215.546 21.217c0 0 1.273-2.105 3.461-1.652 2.099 0.435 2.827 2.652 2.827 2.652v-5.105l-1.464-1.273c-1.608 1.616-4.469 3.953-4.824 5.378zM217.631 25.091c-0.408 0.12-2.181-0.31-2.607-2.147-0.414-1.791 0.829-3.004 2.708-4.91l-2.218-2.028v-3.869c0 0 1.63-0.815 2.907-1.611 1.277-0.801 2.584-1.666 2.584-1.666s0.953 1.203 2.030 1.106c1.686-0.148 1.608-1.477 1.559-1.791 0.288 0.514 1.058 2.041-1.904 5.456l2.413 1.949v5.027c0 0-2.803 1.458-5.453 3.392 0 0-1.48-1.851-2.764-0.967-0.867 0.596-0.47 1.605 0.748 2.060z"></path>
<path d="M120.662 19.375l3.116 2.819v-8.627l-3.116-2.883v8.692zM127.085 12.331l1.086-1 0.156 0.176-1.058 0.981v7.993c0 0-2.010 1.065-3.413 1.856-1.401 0.792-2.899 1.721-2.899 1.721l-3.687-3.106-0.975 0.847-0.157-0.176 1.025-0.893v-8.595h0.013c0 0 1.74-0.787 3.206-1.615 1.312-0.741 2.781-1.597 2.781-1.597l3.922 3.406z"></path>
<path d="M134.336 11.521l2.342-2.393c0 0 0.322 0.282 0.623 0.43 0.172 0.083 0.88 0.449 1.531 0.093 0.352-0.194 0.403-0.245 0.789-0.611 0.079 1.861-0.814 3.17-1.928 3.712-0.456 0.222-1.789 0.648-3.182-1.051v8.599l1.483 1.31 1.237-1.023 0.143 0.181-3.876 3.235-2.949-2.684-1.061 0.999-0.174-0.185 1.616-1.458 0.013-7.424-1.24-1.643-1.066 0.94-0.154-0.171 3.754-3.374 2.097 2.517z"></path>
<path d="M144.21 15.103l4.33-6.299c0 0 0.571 0.676 1.566 0.94 1.352 0.352 2.533-0.953 2.533-0.953-0.226 1.685-1.080 3.596-2.843 3.887-1.553 0.259-2.998-0.949-2.998-0.949l-0.281 0.435 6.012 9.081 1.202-1.055 0.155 0.175-4.126 3.606-5.55-8.868z"></path>
<path d="M140.633 6.694c0-1.361-0.557-2.198-1.285-2.138l4.724-3.318v18.782h0.001l1.247 1.314 0.945-0.819 0.148 0.176-3.806 3.323-2.578-2.421-1.032 0.908-0.163-0.176 1.801-1.568v-14.061z"></path>
<path d="M110.304 11.975c0 0-0.521 0.593-1.342 0.593s-1.358-0.597-1.358-0.597v2.573c0 0 0.537-0.597 1.358-0.597s1.342 0.564 1.342 0.564v-2.536zM110.304 6.462l-1.822-1.601-0.879 0.694v6.030c0 0 0.542 0.685 1.362 0.685s1.339-0.657 1.339-0.657v-5.151zM107.603 23.545c0 0 1.101 0.291 1.903-0.366 0.891-0.736 0.798-1.767 0.798-1.767v-6.508c0 0-0.517-0.667-1.339-0.667s-1.362 0.69-1.362 0.69v8.618zM101.144 6.384c-0-1.268-0.515-1.976-1.35-1.995-1.201-0.028-1.485 1.666-1.485 1.666s-0.219-1.305 0.874-2.49c0.614-0.662 1.76-1.592 3.552-1.162 1.85 0.449 2.376 1.883 2.376 3.151v17.471c0 0 0.699 0.084 1.179 0.19 0.556 0.115 1.083 0.264 1.083 0.264v-21.068h0.23v2.841l3.794-3.054 2.779 2.471 1.296-1.12 0.148 0.176-1.355 1.166v16.245c-0.067 1.059-0.238 2.138-1.239 2.758-2.232 1.324-4.925-0.203-7.324-0.551-1.78-0.264-4.576-0.602-5.278 1.032-0.229 0.537-0.213 1.365 0.595 1.907 1.621 1.084 8.839-1.819 11.314-0.666 2.257 1.051 2.248 2.712 1.9 3.855-0.586 2.143-3.292 2.518-3.292 2.518s1.324-0.769 0.946-2.041c-0.191-0.643-0.628-0.824-2.045-0.667-3.094 0.352-6.792 1.851-9.276 0.81-1.281-0.532-2.186-2.134-2.099-3.707 0.064-2.264 2.677-3.157 2.677-3.157l-0.001-8.373c-0.074-0.333-1.469-0.245-1.774 0.37-0.464 0.931 0.576 1.356 0.576 1.356s-0.862 0.13-1.585-0.704c-0.352-0.408-1.086-1.833-0.131-3.152 0.785-1.088 1.727-1.277 2.914-1.407v-4.938z"></path>
</symbol>
<symbol id="icon-vice" viewBox="0 0 102 32">
<title>vice</title>
<path d="M101.698 4.732c0.111 0.435-0.377 0.854-0.631 1.174-2.129 2.666-4.49 5.821-7.327 7.846 0.205 1.061 0.096 2.468-0.274 3.246 0.743 0.946 1.531 1.842 1.991 3.067-0.605 3.2-2.008 5.682-4.251 7.305-2.19 1.582-5.149 2.206-8.505 2.976-6.49 1.491-17.169 2.962-21.984-0.903-5.214 3.049-15.75 3.452-20.626-0.181-3.466 4.374-17.14 3.99-15.106-4.689-2.536 1.914-6.286 4.553-9.863 6.043-4.149 1.726-12.005 1.531-11.219-4.329 0.095-0.698 0.391-1.093 0.725-1.714-1.214-2.111-1.98-3.576-2.714-5.411-0.703-1.76-1.775-3.763-1.9-6.222-0.264-5.23 3.825-8.546 7.873-10.104 2.065-0.794 3.743-1.945 5.788-2.522 3.057-0.869 5.678 0.808 5.88 3.607 3.554-1.052 7.882-2.212 12.576-1.532 3.737-2.897 11.035-1.107 15.832 0.268 1.084 0.312 2.544 1.118 3.348 1.083 0.68-0.027 1.909-0.948 2.622-1.263 3.366-1.488 7.766-3.072 12.576-2.255 0.911 0.153 1.744 0.634 2.713 0.72 0.658 0.061 1.463-0.145 2.172-0.178 11.242-0.547 20.602 2.461 30.307 3.967h-0.001zM70.217 4.373c-1.148 0.137-1.963 1.39-2.714 1.804 0.055-0.006 0.106-0.015 0.089-0.091 0.137-0.615 0.4-1.105 0.452-1.802-6.021-2.114-11.88 0.976-16.192 3.336-3.449 1.886-6.526 4.103-8.686 6.312 0.78-1.326 1.609-2.638 2.534-3.877 0.937-1.258 1.98-2.397 2.806-3.517-1.804-0.471-3.611-0.968-5.431-1.354-2.585-0.549-6.181-1.457-8.322-0.27-0.619 0.343-1.127 1.187-1.719 1.263-0.49 0.063-1.297-0.294-1.9-0.36-2.21-0.246-4.245-0.041-6.242 0.36-1.871 0.374-5.826 1.037-6.334 2.794-0.325 1.129 0.4 2.223 0.272 3.339-0.123 1.097-1.182 2.551-1.719 3.426-0.657 1.074-1.326 2.025-2.443 2.525-0.676-3.36 0.059-6.349 0.634-9.198 0.354-1.756 1.069-3.554 0.454-5.322-1.726-0.239-3.178 1.122-4.887 1.802-3.209 1.28-6.783 2.447-7.237 6.134-0.256 2.077 0.527 3.397 1.086 4.871 1.104 2.95 2.596 5.74 4.434 8.297-0.48 0.878-1.608 1.106-1.721 2.343 0.511 0.72 1.574 0.816 2.624 0.813 3.035-0.007 5.524-1.529 7.779-2.795 4.91-2.754 8.208-6.992 11.672-11.002 0.608-0.705 1.108-1.554 1.9-1.984 0.777 3.562-0.735 5.468-1.811 8.386-0.415 1.124-1.724 4.644-1.086 6.312 0.699 1.834 6.655 1.914 8.233 0.725 0.795-0.6 1.112-1.954 1.54-2.796 0.545-1.083 1.017-2.018 1.447-2.976 0.024 3.951 2.968 5.111 6.151 5.952 6.766 1.783 13.589-1.402 17.28-3.606-0.462 2.927 0.679 3.22 2.986 3.697 5.966 1.227 11.974-0.188 16.826-1.354 4.449-1.067 8.026-1.822 8.686-6.224-0.712-0.614-2.491-0.537-3.708-0.359-3.588 0.524-7.063 2.332-11.851 1.983-0.874-0.063-2.761-0.367-2.897-0.9-0.21-0.832 1.285-1.415 2.537-1.623 3.588-0.606 8.777 0.006 11.667-1.086 1.387-0.521 3.062-2.028 2.894-3.696-0.11-1.127-1.585-1.716-2.985-1.802-3.959-0.247-6.789 2.057-10.943 1.262 0.519-0.654 0.613-1.731 1.264-2.254 3.039-0.064 5.991 0.537 8.866 0.36 3.998-0.249 6.251-1.928 8.143-4.149 0.202-0.24 0.71-0.497 0.543-0.9-6.944-1.054-16.41-3.843-24.971-2.796h0zM56.465 11.314c-0.446 2.023-1.377 4.338-1.899 6.583 2.875 0.041 5.908-0.544 8.865-0.721 0.4-0.532 0.596-1.268 0.815-1.984 0.593 0.837 1.010 2.402 0.452 3.607-4.49-0.063-7.718 3.603-12.122 3.607-1.973 0.002-3.649-1.128-2.715-3.337 1.319-3.114 4.59-5.29 6.604-7.754zM66.96 7.977c0.846 0.961 2.697 0.92 3.799 1.625-1.487 0.381-3.359 0.378-4.705 0.899 0.318-0.828 0.602-1.685 0.906-2.523v-0.001z"></path>
</symbol>
<symbol id="icon-logo" viewBox="0 0 148 32">
<title>logo</title>
<path d="M17.5 31.18h-6.695v-13.942h-3.978v13.942h-6.695v-30.247h6.695v11.225h3.978v-11.225h6.695v30.247zM38.002 16.016c0 11.618-1.497 15.636-8.862 15.636-6.498 0-8.862-2.875-8.862-15.636 0-10.516 1.89-15.557 8.862-15.557 6.774 0 8.862 4.214 8.862 15.557zM31.149 16.095c0-8.35 0.079-10.476-2.009-10.476-2.009 0-2.009 2.166-2.009 10.476 0 8.822 0.158 10.043 2.009 10.043 1.89 0 2.009-1.26 2.009-10.043zM56.693 6.485h-5.356v24.694h-6.695v-24.694h-5.356v-5.553h17.408v5.553zM83.717 6.958h-7.995v6.577h7.089v5.553h-7.089v12.091h-6.695v-30.247h14.69v6.026zM102.171 31.18h-15.872v-30.247h15.084v5.711h-8.389v6.302h7.483v5.553h-7.483v6.892h9.177v5.79zM120.665 31.18h-15.872v-30.247h15.084v5.711h-8.389v6.302h7.483v5.553h-7.483v6.892h9.177v5.79zM139.198 6.485h-5.356v24.694h-6.695v-24.694h-5.356v-5.553h17.408v5.553zM147.098 31.18h-6.065v-6.617h6.065v6.617z"></path>
</symbol>
<symbol id="icon-arrow_back" viewBox="0 0 32 32">
<title>arrow_back</title>
<path d="M26.688 14.688v2.625h-16.25l7.438 7.5-1.875 1.875-10.688-10.688 10.688-10.688 1.875 1.875-7.438 7.5h16.25z"></path>
</symbol>
<symbol id="icon-arrow_forward" viewBox="0 0 32 32">
<title>arrow_forward</title>
<path d="M16 5.313l10.688 10.688-10.688 10.688-1.875-1.875 7.438-7.5h-16.25v-2.625h16.25l-7.438-7.5z"></path>
</symbol>
<symbol id="icon-play_arrow" viewBox="0 0 32 32">
<title>play_arrow</title>
<path d="M10.688 6.688l14.625 9.313-14.625 9.313v-18.625z"></path>
</symbol>
<symbol id="icon-sort" viewBox="0 0 32 32">
<title>sort</title>
<path d="M4 17.313v-2.625h16v2.625h-16zM4 8h24v2.688h-24v-2.688zM4 24v-2.688h8v2.688h-8z"></path>
</symbol>
</defs>
</svg>
