<?xml version="1.0" standalone="no"?>
<!DOCTYPE svg PUBLIC "-//W3C//DTD SVG 20010904//EN"
 "http://www.w3.org/TR/2001/REC-SVG-20010904/DTD/svg10.dtd">
<svg version="1.0" xmlns="http://www.w3.org/2000/svg"
 width="938.000000pt" height="938.000000pt" viewBox="0 0 938.000000 938.000000"
 preserveAspectRatio="xMidYMid meet">
<metadata>
Created by potrace 1.11, written by Peter Selinger 2001-2013
</metadata>
<g transform="translate(0.000000,938.000000) scale(0.100000,-0.100000)"
fill="#000000" stroke="none">
<path d="M669 7305 c-2 -2 -22 -6 -44 -9 -91 -14 -175 -41 -252 -81 -45 -24
-89 -50 -98 -59 -9 -8 -24 -21 -33 -28 -27 -20 -102 -113 -102 -126 0 -7 -3
-12 -7 -12 -7 0 -45 -81 -48 -100 -1 -3 -4 -18 -8 -35 -15 -62 -17 -82 -17
-150 -1 -213 76 -362 242 -468 58 -37 175 -82 244 -93 194 -31 435 17 561 112
17 13 33 24 36 24 2 0 3 -25 2 -55 -2 -53 -1 -55 24 -56 151 -5 311 -2 312 6
0 6 2 153 2 328 1 205 -2 317 -8 318 -13 1 -628 1 -638 0 -4 -1 -6 -56 -5
-123 l3 -123 138 0 c160 0 165 -5 96 -80 -133 -144 -415 -145 -535 -2 -51 61
-68 113 -68 217 0 81 3 103 25 150 49 105 112 159 221 188 118 32 239 12 315
-52 30 -25 37 -27 99 -21 37 3 78 7 93 9 14 3 58 7 96 11 115 10 127 13 119
38 -10 34 -61 97 -113 139 -23 19 -93 65 -101 66 -3 0 -17 5 -32 11 -42 16
-128 39 -173 46 -43 8 -340 16 -346 10z"/>
<path d="M3409 7306 c-2 -2 -50 -6 -107 -10 -57 -3 -106 -7 -110 -10 -4 -2
-23 -7 -42 -10 -216 -36 -399 -196 -457 -398 -21 -74 -25 -234 -7 -308 50
-214 206 -356 459 -416 77 -19 346 -25 448 -11 138 19 288 91 379 182 97 96
152 242 150 395 0 52 -3 102 -5 110 -36 140 -82 223 -163 299 -111 104 -237
151 -449 167 -43 3 -82 7 -86 9 -3 3 -8 3 -10 1z m106 -266 c113 -37 184 -132
202 -270 11 -82 0 -157 -33 -230 -50 -112 -144 -168 -276 -165 -165 4 -259 67
-312 209 -37 97 -15 280 42 347 9 11 24 29 32 38 26 30 95 69 141 79 58 12
154 9 204 -8z"/>
<path d="M8440 7293 c-236 -56 -356 -129 -452 -275 -104 -157 -122 -369 -48
-549 27 -64 34 -75 94 -146 32 -38 119 -99 179 -127 158 -73 398 -81 582 -19
28 10 61 25 74 35 13 10 28 18 33 18 5 0 25 12 44 26 19 15 34 22 35 18 0 -5
1 -30 1 -56 -1 -27 2 -48 6 -49 51 -5 325 -2 329 4 7 11 7 632 0 643 -4 7
-587 11 -639 5 -5 -1 -8 -56 -8 -124 l0 -123 140 1 c162 0 166 -3 100 -77 -96
-110 -287 -144 -435 -79 -129 57 -198 202 -170 356 12 64 35 125 47 125 5 0 8
6 8 13 0 19 70 84 115 107 48 25 146 47 195 43 36 -2 93 -10 98 -14 1 -1 5 -2
10 -4 28 -7 63 -27 90 -50 34 -28 33 -28 188 -10 16 2 59 6 95 10 72 7 122 15
126 19 9 8 -19 56 -57 99 -38 43 -160 136 -160 122 0 -3 -14 2 -32 11 -33 17
-121 40 -193 51 -80 12 -339 9 -395 -4z"/>
<path d="M1671 7258 c-17 -6 -18 -37 -18 -547 l0 -541 31 -1 c17 0 231 -1 476
-2 l445 0 0 134 0 134 -279 0 -280 0 0 407 c-1 223 -4 409 -8 413 -9 9 -344
12 -367 3z"/>
<path d="M4209 7262 l-57 -3 19 -72 c10 -40 21 -83 24 -97 6 -30 10 -46 30
-130 9 -36 18 -72 20 -80 2 -8 15 -64 30 -125 15 -60 29 -118 31 -128 2 -10 6
-27 9 -37 3 -10 8 -27 10 -37 2 -10 20 -85 40 -168 21 -82 39 -163 42 -180 3
-16 7 -32 9 -34 2 -2 96 -4 210 -4 171 -1 209 2 216 14 6 11 108 403 123 474
10 45 48 185 50 183 3 -4 46 -166 51 -198 3 -13 16 -67 30 -120 14 -52 27
-104 30 -116 2 -11 13 -56 24 -100 12 -43 23 -90 26 -104 3 -13 7 -26 9 -29 4
-3 371 -5 411 -2 7 1 15 18 19 39 10 44 8 36 33 142 41 169 64 265 67 280 2 8
27 110 55 225 28 116 53 219 56 230 21 104 29 132 37 143 20 25 -10 32 -144
33 -237 1 -238 1 -237 -18 0 -10 -3 -31 -6 -48 -16 -81 -21 -108 -30 -175 -4
-25 -8 -52 -11 -60 -4 -15 -14 -72 -20 -120 -7 -51 -46 -265 -49 -268 -2 -1
-13 46 -24 105 -12 60 -37 180 -56 268 -19 88 -41 193 -50 234 -8 41 -18 76
-20 78 -7 7 -388 5 -394 -2 -5 -5 -41 -152 -58 -235 -5 -23 -19 -85 -28 -120
-8 -30 -25 -106 -30 -132 -2 -15 -7 -31 -9 -35 -3 -5 -8 -26 -11 -48 -4 -22
-12 -58 -18 -80 l-11 -40 -8 40 c-4 22 -11 58 -14 80 -3 22 -19 112 -34 200
-16 88 -37 208 -46 268 l-18 107 -71 1 c-39 0 -100 1 -136 2 -36 1 -90 1 -121
-1z"/>
<path d="M5985 7260 l-40 -5 0 -542 c0 -429 2 -543 12 -544 7 0 87 -1 178 -1
91 0 173 1 183 1 17 1 18 26 18 546 0 485 -2 545 -16 545 -130 4 -304 4 -335
0z"/>
<path d="M6553 7262 c-13 -2 -23 -6 -24 -10 -7 -48 -2 -1075 5 -1080 5 -3 92
-6 193 -6 176 -1 183 0 184 19 0 11 1 140 1 288 1 147 4 267 6 267 6 0 35 -31
127 -135 33 -38 65 -73 70 -79 6 -6 42 -47 80 -91 39 -44 75 -84 81 -90 6 -5
37 -41 70 -80 32 -38 65 -76 72 -84 12 -12 161 -18 313 -12 l26 1 0 545 0 545
-36 1 c-128 3 -332 -1 -341 -6 -6 -4 -10 -82 -9 -213 0 -114 0 -241 0 -282
l-1 -75 -25 29 c-13 15 -57 64 -97 108 -40 44 -82 90 -93 102 -98 109 -174
193 -204 225 -20 21 -51 55 -69 75 -30 33 -37 36 -90 37 -31 0 -93 1 -137 2
-44 1 -90 1 -102 -1z"/>
<path d="M685 5737 c-229 -21 -418 -118 -524 -267 -27 -37 -61 -100 -65 -120
-1 -3 -4 -9 -8 -15 -12 -20 -29 -124 -30 -186 -5 -293 167 -502 462 -564 71
-14 266 -16 340 -2 79 15 223 79 250 112 24 29 36 16 35 -37 l0 -53 164 -3
c94 -1 167 1 170 7 5 7 6 617 2 642 -1 3 -146 5 -323 5 l-323 -1 -3 -122 -3
-123 38 -1 c21 0 84 0 141 0 94 1 102 0 102 -18 0 -29 -84 -109 -144 -137 -43
-19 -120 -36 -171 -37 -84 -1 -192 42 -246 96 -108 108 -116 315 -18 452 107
149 377 177 514 52 14 -12 29 -16 55 -12 19 3 60 7 90 10 30 3 69 7 85 10 17
2 62 6 102 10 l72 7 -15 31 c-35 67 -123 151 -198 187 -136 66 -351 97 -551
77z"/>
<path d="M8577 5744 c-1 -1 -31 -5 -66 -8 -103 -11 -189 -35 -288 -82 -206
-98 -333 -302 -327 -524 6 -272 147 -454 414 -535 81 -24 266 -31 371 -12 89
15 241 78 268 110 25 32 36 20 34 -38 l-2 -55 169 0 170 0 1 28 c3 135 0 612
-4 619 -3 5 -139 9 -324 9 l-318 -1 -5 -35 c-3 -19 -3 -75 0 -124 l5 -89 138
2 c92 1 137 -2 137 -10 0 -40 -71 -110 -150 -147 -48 -22 -69 -26 -160 -26
-94 -1 -111 2 -163 26 -67 32 -121 84 -150 148 -17 36 -21 65 -22 146 0 95 2
104 34 165 66 126 161 181 316 182 98 1 157 -18 217 -68 23 -19 38 -24 62 -21
17 3 58 8 91 11 33 3 71 7 85 10 14 2 57 7 95 10 39 4 72 8 73 10 10 10 -37
81 -82 126 -76 76 -176 127 -282 143 -20 4 -40 8 -44 11 -13 8 -285 26 -293
19z"/>
<path d="M3337 5734 c-1 -1 -35 -4 -75 -8 -276 -23 -478 -159 -554 -373 -27
-77 -32 -110 -32 -218 0 -114 13 -173 56 -259 25 -50 32 -58 98 -126 127 -129
301 -185 575 -183 125 0 173 5 265 27 202 47 353 174 420 352 70 189 28 443
-98 580 -127 139 -295 201 -556 208 -53 1 -98 1 -99 0z m219 -277 c56 -28 121
-97 131 -137 3 -14 9 -29 13 -35 12 -15 24 -104 22 -155 -2 -41 -8 -85 -12
-85 -1 0 -3 -8 -5 -18 -11 -58 -65 -137 -120 -174 -93 -63 -282 -59 -378 9
-44 31 -63 55 -93 113 -52 104 -52 242 1 346 61 122 152 172 305 165 67 -2 96
-9 136 -29z"/>
<path d="M1655 5685 c-2 -5 -3 -251 -2 -545 l2 -535 475 -3 475 -2 0 134 1
134 -273 0 c-150 0 -276 2 -280 5 -4 3 -8 188 -7 411 1 286 -2 406 -10 407
-76 7 -379 2 -381 -6z"/>
<path d="M4160 5692 c-6 -2 -8 -8 -4 -13 3 -5 8 -22 10 -37 3 -15 12 -54 21
-87 8 -33 17 -70 19 -82 2 -12 9 -34 14 -48 5 -14 8 -25 5 -25 -2 0 5 -29 15
-65 10 -36 19 -66 19 -68 -1 -4 9 -46 42 -177 17 -69 32 -136 35 -150 3 -14 7
-33 10 -42 3 -9 7 -25 9 -35 2 -10 8 -38 15 -63 6 -25 17 -74 25 -110 8 -36
17 -71 20 -77 3 -10 55 -13 214 -13 l209 0 11 33 c12 39 131 513 138 546 2 14
6 28 9 33 3 4 7 18 9 29 3 12 6 23 8 26 4 3 38 -127 53 -197 3 -14 9 -38 14
-55 9 -31 38 -142 46 -176 6 -27 11 -47 24 -99 6 -25 13 -58 16 -75 13 -68 3
-66 232 -63 l206 3 58 235 c32 129 60 244 62 255 8 43 118 490 122 496 2 3 6
25 9 49 3 23 7 45 9 49 2 3 -81 6 -185 6 -160 0 -190 -2 -194 -15 -4 -16 -24
-124 -32 -175 -2 -16 -11 -70 -20 -120 -8 -49 -17 -103 -20 -120 -2 -16 -6
-41 -9 -55 -2 -14 -7 -43 -10 -65 -3 -22 -9 -51 -13 -65 -4 -14 -7 -33 -5 -42
3 -26 -15 -22 -20 5 -3 12 -11 49 -17 82 -7 33 -14 65 -15 70 -1 6 -4 21 -7
35 -18 90 -38 184 -41 189 -2 3 -7 23 -10 44 -3 22 -13 69 -21 105 -8 37 -16
77 -18 89 -2 12 -6 26 -10 29 -4 4 -95 8 -202 8 l-196 1 -5 -25 c-4 -14 -13
-52 -21 -85 -8 -33 -17 -71 -19 -85 -3 -14 -9 -41 -14 -60 -5 -19 -12 -50 -15
-69 -3 -19 -8 -37 -10 -41 -2 -3 -6 -20 -9 -36 -12 -66 -68 -295 -72 -292 -2
2 -5 24 -8 49 -2 24 -7 51 -10 59 -3 8 -7 31 -10 51 -3 19 -17 102 -31 185
-14 82 -28 158 -29 169 -14 86 -17 108 -21 136 -2 17 -6 34 -10 37 -6 6 -357
10 -375 4z"/>
<path d="M5947 5685 c-2 -5 -3 -251 -3 -545 l1 -535 195 0 195 0 1 543 c0 487
-1 542 -15 543 -88 7 -371 2 -374 -6z"/>
<path d="M6529 5690 c-3 -17 -4 -1058 -1 -1072 4 -16 21 -18 193 -18 l189 0 1
23 c0 12 1 142 2 289 0 255 1 266 19 255 10 -7 18 -15 18 -18 0 -3 12 -19 28
-35 15 -16 42 -47 61 -69 19 -22 67 -76 106 -120 40 -44 86 -96 101 -115 16
-19 38 -44 49 -56 11 -11 47 -51 79 -87 l60 -67 160 2 161 3 1 543 c0 298 -2
542 -5 543 -19 3 -358 4 -368 1 -9 -3 -12 -62 -12 -230 0 -125 0 -252 -1 -282
l0 -55 -58 61 c-31 34 -86 94 -122 134 -36 40 -81 90 -100 110 -19 20 -64 70
-100 110 -36 40 -82 91 -103 113 l-38 41 -160 0 c-87 1 -159 -1 -160 -4z"/>
<path d="M1217 4094 c-1 -1 -45 -4 -97 -8 -122 -8 -160 -14 -290 -42 -73 -15
-195 -60 -280 -102 -255 -126 -451 -361 -516 -617 -4 -16 -8 -34 -10 -40 -25
-98 -27 -340 -4 -445 21 -95 51 -182 88 -255 20 -38 39 -72 42 -75 3 -3 18
-23 35 -45 119 -162 375 -314 600 -356 28 -5 66 -12 85 -16 48 -8 322 -9 390
0 176 22 356 82 453 150 16 10 31 16 35 13 3 -4 6 -32 7 -64 l1 -57 329 0 330
0 1 570 c1 314 0 577 -2 585 -3 14 -72 16 -584 16 l-580 0 0 -258 0 -258 217
-2 216 -3 -34 -35 c-71 -74 -166 -118 -307 -145 -110 -20 -259 5 -364 62 -69
38 -151 130 -177 201 -93 249 3 536 216 649 81 43 154 60 265 61 147 1 248
-34 336 -117 24 -23 47 -39 50 -37 4 2 39 6 77 10 87 8 150 15 195 22 33 4
107 12 190 19 19 2 60 6 90 9 49 6 132 14 153 16 19 1 -41 135 -91 205 -161
224 -448 353 -847 380 -101 7 -215 12 -218 9z m257 -68 c175 -19 342 -58 449
-105 107 -46 223 -137 299 -231 35 -44 83 -129 76 -135 -2 -2 -28 -6 -58 -10
-30 -3 -66 -8 -80 -10 -14 -2 -59 -7 -100 -10 -41 -3 -90 -9 -109 -11 -18 -3
-52 -7 -75 -9 -96 -8 -181 -18 -187 -21 -4 -2 -18 7 -33 21 -56 52 -196 130
-196 109 0 -4 -6 -2 -12 3 -17 12 -63 17 -163 17 -107 1 -160 -8 -231 -37
-218 -88 -346 -286 -345 -530 1 -87 2 -96 21 -167 28 -104 111 -217 201 -272
37 -23 149 -69 149 -62 0 3 10 -1 22 -7 12 -7 70 -13 129 -15 194 -4 340 49
457 168 42 42 85 115 76 129 -2 4 -104 8 -226 9 -122 0 -224 3 -226 5 -4 4 -6
282 -3 367 l1 26 525 1 524 0 0 -529 1 -529 -274 0 -275 0 0 72 c0 40 0 83 0
96 l-1 23 -33 -28 c-136 -116 -363 -196 -598 -210 -122 -7 -101 -7 -214 0
-128 7 -317 49 -352 78 -7 6 -13 8 -13 5 0 -6 -109 50 -159 81 -41 25 -122 93
-165 137 -44 46 -106 134 -106 152 0 6 -5 13 -10 15 -14 4 -78 195 -85 254 -4
27 -8 56 -11 65 -11 39 -4 261 10 307 3 9 8 32 11 50 15 87 83 232 152 324 47
61 161 178 175 178 4 0 13 6 20 13 38 37 203 122 283 146 22 7 47 15 55 18 38
15 107 31 160 39 25 3 47 8 50 9 4 2 51 7 105 11 55 3 101 7 103 9 5 4 229 -3
286 -9z"/>
<path d="M3578 4075 c-2 -2 -38 -6 -81 -9 -213 -17 -430 -90 -592 -199 -72
-49 -189 -165 -229 -227 -16 -25 -37 -56 -46 -70 -21 -33 -75 -163 -90 -220
-26 -96 -32 -149 -34 -280 -3 -144 8 -219 47 -335 115 -333 417 -570 807 -630
14 -3 36 -7 49 -9 118 -25 529 -25 644 0 12 3 38 7 57 9 19 3 46 8 60 11 14 3
32 7 40 9 39 8 172 61 230 92 105 54 158 92 234 163 55 52 146 161 146 175 0
4 8 19 19 33 18 26 69 140 77 171 2 9 10 41 18 71 38 146 39 351 1 493 -27
101 -30 109 -73 207 -48 108 -160 243 -272 327 -66 49 -205 121 -270 138 -3 1
-12 5 -20 8 -34 14 -129 37 -190 46 -36 5 -83 13 -105 16 -40 7 -421 15 -427
10z m302 -59 c63 -3 124 -7 135 -10 23 -4 119 -18 122 -18 9 2 178 -50 222
-67 198 -80 359 -227 453 -416 13 -27 25 -52 26 -55 0 -3 5 -17 11 -32 37 -98
55 -212 55 -348 -1 -165 -26 -275 -95 -413 -83 -169 -220 -301 -408 -397 -45
-23 -87 -43 -94 -44 -7 -2 -19 -6 -27 -9 -24 -9 -122 -35 -155 -41 -16 -3 -39
-8 -50 -10 -166 -33 -568 -26 -755 13 -71 15 -211 61 -255 84 -22 12 -43 21
-46 22 -20 1 -148 96 -203 150 -92 91 -192 248 -211 331 -2 11 -11 44 -20 74
-11 35 -18 104 -20 190 -3 133 2 190 29 315 7 30 50 149 57 155 3 3 22 35 42
72 33 59 141 181 204 230 85 66 252 148 353 173 128 32 209 44 365 51 66 3
121 7 123 9 2 2 9 2 15 0 7 -2 64 -7 127 -9z"/>
<path d="M3585 3611 c-33 -9 -70 -21 -81 -28 -12 -7 -24 -9 -28 -6 -3 3 -6 1
-6 -5 0 -6 -9 -14 -21 -17 -11 -4 -47 -33 -79 -65 -58 -58 -120 -162 -134
-225 -4 -16 -10 -43 -14 -60 -4 -16 -6 -82 -6 -145 0 -98 4 -127 28 -194 81
-236 262 -353 531 -341 114 5 136 9 214 45 133 62 230 209 259 390 7 46 7 184
-1 235 -17 113 -77 240 -142 299 -58 53 -154 104 -230 123 -55 13 -233 10
-290 -6z m365 -84 c93 -45 148 -97 189 -182 44 -89 59 -170 56 -295 -6 -239
-126 -418 -304 -456 -195 -41 -374 -1 -480 105 -52 52 -105 139 -116 190 -3
12 -7 30 -10 41 -3 11 -7 30 -10 43 -7 29 -7 165 0 200 3 15 7 37 9 50 13 75
70 175 135 235 42 40 141 99 141 85 0 -3 7 0 15 7 8 7 15 10 15 7 0 -4 10 -2
23 3 12 5 76 8 142 6 116 -2 123 -3 195 -39z"/>
<path d="M5085 3995 c-2 -11 -3 -434 -2 -940 l2 -920 368 -1 c326 0 367 1 368
15 0 9 1 200 1 425 l0 409 32 -34 c17 -19 65 -72 106 -119 41 -47 77 -87 80
-90 3 -3 39 -43 80 -90 41 -47 81 -92 90 -101 8 -9 38 -42 65 -74 28 -32 65
-74 83 -94 19 -20 52 -58 75 -85 23 -27 47 -54 54 -61 6 -7 29 -32 50 -56 l38
-44 305 0 305 0 0 925 c1 509 -1 932 -3 940 -3 13 -51 15 -362 14 -198 0 -362
-3 -366 -6 -3 -4 -6 -192 -5 -420 l0 -413 -52 56 c-29 31 -68 74 -87 95 -89
99 -207 229 -225 249 -11 12 -56 61 -100 110 -44 49 -91 100 -104 114 -12 14
-49 55 -81 91 -32 36 -70 78 -85 94 l-28 30 -299 0 c-291 1 -299 0 -303 -19z
m633 -101 c31 -34 91 -99 132 -144 41 -46 80 -88 85 -94 6 -6 71 -78 145 -161
211 -234 256 -283 306 -337 19 -21 52 -58 74 -83 22 -26 41 -43 41 -38 1 4 3
211 4 458 1 248 3 452 4 455 0 3 139 5 309 5 l307 0 0 -880 0 -880 -262 -2
-262 -1 -58 66 c-31 37 -64 74 -73 83 -16 18 -115 129 -150 169 -12 14 -49 56
-83 94 -34 39 -84 95 -111 125 -27 31 -57 65 -67 76 -11 11 -31 34 -47 51 -79
91 -132 152 -153 175 -13 14 -39 43 -56 63 -18 21 -34 36 -34 34 -1 -1 -2
-212 -3 -468 l-1 -465 -313 -2 -312 -2 0 882 0 883 261 -1 261 0 56 -61z"/>
<path d="M7379 4009 c-5 -3 -8 -386 -7 -940 l3 -934 998 0 997 -1 0 257 0 257
-621 1 c-342 0 -624 3 -627 5 -4 5 -6 78 -3 142 1 20 3 20 554 19 303 0 559 2
567 6 13 6 15 42 14 251 -1 133 -2 247 -3 251 0 4 -253 7 -562 7 -308 -1 -563
1 -566 4 -10 10 -6 158 4 164 6 4 278 7 605 6 326 0 598 1 605 4 9 3 12 69 12
253 0 137 -4 249 -7 250 -29 4 -1956 3 -1963 -2z m1911 -250 l0 -198 -572 0
c-315 0 -592 0 -615 0 l-43 -1 0 -145 0 -145 568 0 569 0 0 -195 c0 -136 -3
-195 -11 -197 -6 0 -252 -2 -546 -3 -294 -2 -545 -3 -557 -4 -23 -1 -23 -3
-23 -141 l0 -140 627 -2 626 -3 0 -175 c-1 -96 -2 -185 -2 -197 l-1 -22 -940
0 -940 0 0 27 c-1 37 -1 1625 0 1687 l0 50 930 0 930 1 0 -197z"/>
</g>
</svg>
