<svg aria-hidden="true" style="position: absolute; width: 0; height: 0; overflow: hidden;" version="1.1" xmlns="http://www.w3.org/2000/svg" xmlns:xlink="http://www.w3.org/1999/xlink">
<defs>
<symbol id="icon-logo" viewBox="0 0 57 32">
<title>logo</title>
<path d="M54.852 16.542v-0.738c-0.151 0.142-0.255 0.246-0.605 0.435-0.435 0.236-1.087 0.501-2.222 0.501-0.426 0-1.589-0.028-2.6-0.813-0.369-0.283-0.577-0.558-0.671-0.709-0.208-0.303-0.539-0.974-0.539-1.929 0-0.444 0.057-1.475 0.889-2.383 0.624-0.671 1.711-1.343 3.735-1.343 0.246 0 1.589 0.019 2.562 0.492 0.359 0.18 0.577 0.369 0.69 0.482 0.17 0.151 0.331 0.331 0.444 0.52 0.076 0.113 0.17 0.34 0.17 0.34l-2.364 0.255c-0.227-0.246-0.643-0.586-1.466-0.586-0.208 0-0.813 0.009-1.343 0.388-0.302 0.217-0.86 0.766-0.86 1.768 0 0.208 0.019 0.832 0.444 1.324 0.388 0.463 1.031 0.671 1.626 0.671 1.078 0 1.721-0.605 1.891-0.984 0.009-0.019 0.028-0.104 0.047-0.179h-1.74v-1.513h3.981v4h-2.071zM45.389 16.542l-3.168-3.574v3.574h-2.364v-6.675h1.976l3.186 3.517v-3.517h2.354v6.675h-1.986zM36.302 16.542h2.392v-6.675h-2.392v6.675zM34.223 16.542h-2.562l-1.040-4.16-1.059 4.16h-2.582l-1.617-6.675h2.335l0.737 4.302 0.993-4.302h2.439l0.908 4.283 0.728-4.283h2.326l-1.607 6.675zM22.131 11.587c-0.095-0.095-0.322-0.265-0.643-0.378-0.17-0.057-0.35-0.104-0.709-0.104-0.312 0-0.567 0.028-0.86 0.151-0.785 0.331-1.144 1.135-1.144 1.948 0 0.123 0.010 0.463 0.133 0.813 0.397 1.191 1.475 1.276 1.882 1.276 0.113 0 0.539 0 0.898-0.161 0.747-0.331 1.049-1.182 1.049-1.938 0-0.851-0.359-1.39-0.605-1.607v0zM23.719 16.031c-0.35 0.236-0.69 0.397-1.088 0.511-0.387 0.114-0.974 0.227-1.919 0.227-1.418 0-2.279-0.312-2.818-0.633-0.18-0.104-0.511-0.321-0.841-0.719-0.709-0.86-0.738-1.73-0.738-2.156 0-1.683 0.898-2.525 1.447-2.894 0.567-0.388 1.381-0.728 2.874-0.747 0.303 0 0.596 0 0.898 0.028 1.768 0.142 2.591 0.842 3.054 1.504 0.217 0.321 0.605 1.012 0.605 2.023 0 0.596-0.123 1.939-1.475 2.855v0zM10.095 16.542v-6.675h2.402v5.049h3.413v1.626h-5.815zM6.985 16.542v-0.738c-0.151 0.142-0.255 0.246-0.605 0.435-0.435 0.236-1.087 0.501-2.222 0.501-0.425 0-1.588-0.028-2.6-0.813-0.369-0.283-0.577-0.558-0.671-0.709-0.208-0.303-0.539-0.974-0.539-1.929 0-0.444 0.057-1.475 0.889-2.383 0.624-0.671 1.711-1.343 3.735-1.343 0.246 0 1.589 0.019 2.562 0.492 0.359 0.18 0.577 0.369 0.69 0.482 0.17 0.151 0.331 0.331 0.444 0.52 0.076 0.113 0.17 0.34 0.17 0.34l-2.364 0.255c-0.227-0.246-0.643-0.586-1.466-0.586-0.208 0-0.813 0.009-1.342 0.388-0.303 0.217-0.861 0.766-0.861 1.768 0 0.208 0.019 0.832 0.444 1.324 0.388 0.463 1.031 0.671 1.626 0.671 1.078 0 1.721-0.605 1.891-0.984 0.009-0.019 0.028-0.104 0.047-0.179h-1.74v-1.513h3.981v4h-2.071zM54.852 6.978v-0.737c-0.151 0.142-0.255 0.246-0.605 0.435-0.435 0.236-1.087 0.501-2.222 0.501-0.426 0-1.589-0.028-2.6-0.813-0.369-0.284-0.577-0.558-0.671-0.709-0.208-0.303-0.539-0.974-0.539-1.929 0-0.444 0.057-1.475 0.889-2.383 0.624-0.671 1.711-1.343 3.735-1.343 0.246 0 1.589 0.019 2.562 0.492 0.359 0.18 0.577 0.369 0.69 0.482 0.17 0.151 0.331 0.331 0.444 0.52 0.076 0.114 0.17 0.34 0.17 0.34l-2.364 0.255c-0.227-0.246-0.643-0.586-1.466-0.586-0.208 0-0.813 0.009-1.343 0.388-0.302 0.218-0.86 0.766-0.86 1.768 0 0.208 0.019 0.832 0.444 1.324 0.388 0.463 1.031 0.671 1.626 0.671 1.078 0 1.721-0.605 1.891-0.983 0.009-0.019 0.028-0.104 0.047-0.18h-1.74v-1.513h3.981v3.999h-2.071zM45.389 6.978l-3.168-3.574v3.574h-2.364v-6.675h1.976l3.186 3.517v-3.517h2.354v6.675h-1.986zM36.302 6.978h2.392v-6.675h-2.392v6.675zM34.223 6.978h-2.562l-1.040-4.16-1.059 4.16h-2.582l-1.617-6.675h2.335l0.737 4.302 0.993-4.302h2.439l0.908 4.283 0.728-4.283h2.326l-1.607 6.675zM22.131 2.023c-0.095-0.095-0.322-0.265-0.643-0.378-0.17-0.057-0.35-0.104-0.709-0.104-0.312 0-0.567 0.028-0.86 0.151-0.785 0.331-1.144 1.135-1.144 1.948 0 0.123 0.010 0.463 0.133 0.813 0.397 1.191 1.475 1.277 1.882 1.277 0.113 0 0.539 0 0.898-0.161 0.747-0.331 1.049-1.182 1.049-1.938 0-0.851-0.359-1.39-0.605-1.607v0zM23.719 6.468c-0.35 0.236-0.69 0.397-1.088 0.51-0.387 0.113-0.974 0.227-1.919 0.227-1.418 0-2.279-0.312-2.818-0.633-0.18-0.104-0.511-0.322-0.841-0.719-0.709-0.86-0.738-1.73-0.738-2.156 0-1.683 0.898-2.524 1.447-2.893 0.567-0.388 1.381-0.728 2.874-0.747 0.303 0 0.596 0 0.898 0.028 1.768 0.142 2.591 0.841 3.054 1.503 0.217 0.322 0.605 1.012 0.605 2.024 0 0.596-0.123 1.938-1.475 2.856v0zM10.095 6.978v-6.675h2.402v5.049h3.413v1.626h-5.815zM6.985 6.978v-0.737c-0.151 0.142-0.255 0.246-0.605 0.435-0.435 0.236-1.087 0.501-2.222 0.501-0.425 0-1.588-0.028-2.6-0.813-0.369-0.284-0.577-0.558-0.671-0.709-0.208-0.303-0.539-0.974-0.539-1.929 0-0.444 0.057-1.475 0.889-2.383 0.624-0.671 1.711-1.343 3.735-1.343 0.246 0 1.589 0.019 2.562 0.492 0.359 0.18 0.577 0.369 0.69 0.482 0.17 0.151 0.331 0.331 0.444 0.52 0.076 0.114 0.17 0.34 0.17 0.34l-2.364 0.255c-0.227-0.246-0.643-0.586-1.466-0.586-0.208 0-0.813 0.009-1.342 0.388-0.303 0.218-0.861 0.766-0.861 1.768 0 0.208 0.019 0.832 0.444 1.324 0.388 0.463 1.031 0.671 1.626 0.671 1.078 0 1.721-0.605 1.891-0.983 0.009-0.019 0.028-0.104 0.047-0.18h-1.74v-1.513h3.981v3.999h-2.071z"></path>
<path d="M14.411 31.262h-3.344v-1.191c-0.244 0.229-0.412 0.397-0.977 0.702-0.702 0.382-1.756 0.809-3.589 0.809-0.687 0-2.566-0.046-4.199-1.313-0.595-0.458-0.932-0.901-1.084-1.145-0.336-0.489-0.87-1.573-0.87-3.115 0-0.718 0.091-2.382 1.435-3.848 1.008-1.084 2.764-2.168 6.032-2.168 0.397 0 2.566 0.031 4.138 0.794 0.58 0.29 0.931 0.596 1.115 0.779 0.275 0.244 0.534 0.534 0.718 0.84 0.122 0.183 0.275 0.55 0.275 0.55l-3.818 0.412c-0.366-0.397-1.038-0.947-2.367-0.947-0.336 0-1.313 0.015-2.168 0.626-0.489 0.351-1.389 1.237-1.389 2.856 0 0.336 0.030 1.344 0.718 2.138 0.626 0.748 1.665 1.084 2.627 1.084 1.741 0 2.779-0.977 3.054-1.588 0.015-0.031 0.046-0.168 0.076-0.29h-2.81v-2.443h6.429v6.459zM14.411 24.455h-6.776v3.138h2.656c-0.545 0.858-1.868 1.183-2.629 1.183-0.975 0-1.857-0.359-2.36-0.96-0.418-0.483-0.637-1.143-0.637-1.915 0-1.515 0.871-2.305 1.245-2.574 0.521-0.372 1.182-0.561 1.965-0.561 1.202 0 1.781 0.476 2.112 0.835l0.119 0.128 4.453-0.481-0.179-0.429c-0.017-0.040-0.166-0.395-0.302-0.602-0.186-0.308-0.453-0.621-0.773-0.907-0.315-0.313-0.729-0.602-1.198-0.837-1.588-0.771-3.688-0.831-4.294-0.831-2.765 0-4.88 0.767-6.286 2.279-1.015 1.107-1.528 2.481-1.528 4.085 0 1.758 0.645 2.893 0.927 3.306 0.154 0.246 0.508 0.726 1.163 1.23 1.184 0.919 2.669 1.385 4.411 1.385 1.961 0 3.082-0.486 3.754-0.852 0.191-0.103 0.34-0.193 0.464-0.275v0.805h4.039v-7.154h-0.347z"></path>
<path d="M27.588 30.437c-0.565 0.382-1.115 0.641-1.756 0.825-0.626 0.183-1.573 0.367-3.1 0.367-2.29 0-3.68-0.504-4.55-1.023-0.29-0.168-0.825-0.519-1.359-1.161-1.145-1.39-1.191-2.795-1.191-3.482 0-2.718 1.451-4.077 2.337-4.673 0.916-0.626 2.23-1.176 4.642-1.206 0.489 0 0.962 0 1.451 0.046 2.856 0.229 4.184 1.359 4.933 2.428 0.351 0.519 0.977 1.634 0.977 3.268 0 0.962-0.199 3.131-2.382 4.612zM29.281 22.363c-1.081-1.544-2.778-2.386-5.192-2.58-0.5-0.047-0.975-0.047-1.478-0.047h-0.002l-0.002 0c-2.721 0.034-4.062 0.739-4.834 1.267-0.928 0.624-2.488 2.1-2.488 4.96 0 0.591 0 2.161 1.271 3.703 0.426 0.511 0.915 0.928 1.453 1.24 1.189 0.709 2.78 1.070 4.725 1.070 1.277 0 2.323-0.125 3.198-0.381 0.667-0.191 1.256-0.467 1.853-0.87 2.095-1.421 2.535-3.449 2.535-4.9 0-1.595-0.564-2.763-1.037-3.462z"></path>
<path d="M24.164 28.669c-0.235 0.105-0.652 0.23-1.31 0.23-0.959 0-2.207-0.316-2.709-1.824-0.171-0.486-0.196-0.962-0.196-1.204 0-1.338 0.611-2.394 1.635-2.826 0.431-0.181 0.8-0.217 1.255-0.217 0.54 0 0.798 0.071 1.036 0.15 0.457 0.161 0.783 0.407 0.903 0.527l0.007 0.007 0.008 0.007c0.397 0.351 0.86 1.174 0.86 2.336 0 1.041-0.391 2.327-1.489 2.813zM25.023 23.26c-0.153-0.153-0.519-0.428-1.038-0.611-0.275-0.092-0.565-0.168-1.146-0.168-0.504 0-0.916 0.046-1.39 0.244-1.267 0.534-1.847 1.832-1.847 3.146 0 0.199 0.015 0.748 0.214 1.313 0.641 1.924 2.382 2.061 3.039 2.061 0.183 0 0.87 0 1.451-0.26 1.206-0.534 1.695-1.909 1.695-3.13 0-1.374-0.58-2.245-0.977-2.596z"></path>
<path d="M56.874 31.262h-11.514v-10.781h11.377v2.413h-7.513v1.771h6.948v2.428h-6.948v1.726h7.65v2.443zM56.874 28.471h-7.303v-1.031h6.948v-3.123h-6.948v-1.077h7.513v-3.107h-12.071v11.476h12.209v-3.138h-0.347z"></path>
<path d="M43.529 31.262h-3.207l-5.115-5.772v5.772h-3.818v-10.781h3.191l5.146 5.681v-5.681h3.802v10.781zM43.529 20.134h-4.15v5.127l-4.645-5.127h-3.693v11.476h4.512v-5.204l4.612 5.204h3.711v-11.476h-0.347z"></path>
</symbol>
</defs>
</svg>
