<?xml version="1.0" encoding="UTF-8"?>
<svg width="469px" height="262px" viewBox="0 0 469 262" version="1.1" xmlns="http://www.w3.org/2000/svg" xmlns:xlink="http://www.w3.org/1999/xlink">
    <!-- Generator: Sketch 53.2 (72643) - https://sketchapp.com -->
    <title>Group 16</title>
    <desc>Created with Sketch.</desc>
    <g id="Page-1" stroke="none" stroke-width="1" fill="none" fill-rule="evenodd">
        <g id="Group-16" fill="#FFFFFF">
            <path d="M449.1034,135.4359 L449.1034,129.3969 C447.8654,130.5599 447.0134,131.4109 444.1484,132.9579 C440.5884,134.8939 435.2474,137.0629 425.9574,137.0629 C422.4724,137.0629 412.9514,136.8309 404.6674,130.4029 C401.6484,128.0819 399.9454,125.8359 399.1714,124.5989 C397.4674,122.1219 394.7584,116.6239 394.7584,108.8059 C394.7584,105.1669 395.2224,96.7279 402.0354,89.2959 C407.1464,83.7999 416.0474,78.3029 432.6154,78.3029 C434.6264,78.3029 445.6214,78.4579 453.5944,82.3299 C456.5364,83.7999 458.3164,85.3499 459.2464,86.2769 C460.6384,87.5169 461.9564,88.9869 462.8834,90.5359 C463.5034,91.4639 464.2774,93.3229 464.2774,93.3229 L444.9234,95.4129 C443.0664,93.3989 439.6604,90.6129 432.9234,90.6129 C431.2204,90.6129 426.2664,90.6899 421.9304,93.7879 C419.4544,95.5669 414.8864,100.0579 414.8864,108.2639 C414.8864,109.9659 415.0404,115.0769 418.5254,119.1029 C421.7004,122.8939 426.9634,124.5989 431.8394,124.5989 C440.6654,124.5989 445.9294,119.6439 447.3244,116.5459 C447.4014,116.3929 447.5554,115.6949 447.7104,115.0769 L433.4664,115.0769 L433.4664,102.6889 L466.0584,102.6889 L466.0584,135.4359 L449.1034,135.4359 Z M371.6194,135.4359 L345.6844,106.1729 L345.6844,135.4359 L326.3314,135.4359 L326.3314,80.7819 L342.5104,80.7819 L368.5994,109.5799 L368.5994,80.7819 L387.8764,80.7819 L387.8764,135.4359 L371.6194,135.4359 Z M297.2244,135.4359 L316.8094,135.4359 L316.8094,80.7819 L297.2244,80.7819 L297.2244,135.4359 Z M280.2024,135.4359 L259.2224,135.4359 L250.7074,101.3729 L242.0364,135.4359 L220.9004,135.4359 L207.6644,80.7819 L226.7864,80.7819 L232.8244,116.0049 L240.9534,80.7819 L260.9244,80.7819 L268.3574,115.8509 L274.3184,80.7819 L293.3624,80.7819 L280.2024,135.4359 Z M181.1944,94.8709 C180.4194,94.0969 178.5614,92.7039 175.9304,91.7729 C174.5374,91.3099 173.0654,90.9219 170.1244,90.9219 C167.5694,90.9219 165.4784,91.1539 163.0794,92.1619 C156.6534,94.8709 153.7104,101.4519 153.7104,108.1079 C153.7104,109.1159 153.7904,111.9009 154.7954,114.7669 C158.0464,124.5199 166.8734,125.2169 170.2024,125.2169 C171.1294,125.2169 174.6144,125.2169 177.5574,123.9009 C183.6714,121.1909 186.1494,114.2249 186.1494,108.0319 C186.1494,101.0629 183.2074,96.6499 181.1944,94.8709 L181.1944,94.8709 Z M194.2014,131.2549 C191.3354,133.1909 188.5484,134.5069 185.2964,135.4359 C182.1244,136.3659 177.3244,137.2939 169.5824,137.2939 C157.9704,137.2939 150.9254,134.7399 146.5124,132.1079 C145.0414,131.2549 142.3324,129.4759 139.6234,126.2249 C133.8164,119.1799 133.5844,112.0579 133.5844,108.5739 C133.5844,94.7919 140.9384,87.9029 145.4284,84.8829 C150.0734,81.7089 156.7314,78.9229 168.9624,78.7689 C171.4394,78.7689 173.8404,78.7689 176.3174,78.9989 C190.7934,80.1619 197.5284,85.8909 201.3234,91.3099 C203.1034,93.9409 206.2774,99.5929 206.2774,107.8759 C206.2774,112.7529 205.2704,123.7479 194.2014,131.2549 L194.2014,131.2549 Z M82.6514,135.4359 L82.6514,80.7819 L102.3154,80.7819 L102.3154,122.1219 L130.2614,122.1219 L130.2614,135.4359 L82.6514,135.4359 Z M57.1884,135.4359 L57.1884,129.3969 C55.9504,130.5599 55.0994,131.4109 52.2334,132.9579 C48.6734,134.8939 43.3324,137.0629 34.0414,137.0629 C30.5584,137.0629 21.0364,136.8309 12.7524,130.4029 C9.7334,128.0819 8.0294,125.8359 7.2564,124.5989 C5.5524,122.1219 2.8434,116.6239 2.8434,108.8059 C2.8434,105.1669 3.3084,96.7279 10.1204,89.2959 C15.2294,83.7999 24.1324,78.3029 40.7004,78.3029 C42.7114,78.3029 53.7064,78.4579 61.6794,82.3299 C64.6214,83.7999 66.4004,85.3499 67.3314,86.2769 C68.7244,87.5169 70.0414,88.9869 70.9684,90.5359 C71.5884,91.4639 72.3614,93.3229 72.3614,93.3229 L53.0084,95.4129 C51.1504,93.3989 47.7454,90.6129 41.0084,90.6129 C39.3054,90.6129 34.3524,90.6899 30.0174,93.7879 C27.5394,95.5669 22.9714,100.0579 22.9714,108.2639 C22.9714,109.9659 23.1254,115.0769 26.6094,119.1029 C29.7854,122.8939 35.0484,124.5989 39.9254,124.5989 C48.7504,124.5989 54.0154,119.6439 55.4094,116.5459 C55.4854,116.3929 55.6414,115.6949 55.7954,115.0769 L41.5514,115.0769 L41.5514,102.6889 L74.1444,102.6889 L74.1444,135.4359 L57.1884,135.4359 Z M449.1034,57.1329 L449.1034,51.0949 C447.8654,52.2559 447.0134,53.1069 444.1484,54.6569 C440.5884,56.5919 435.2474,58.7589 425.9574,58.7589 C422.4724,58.7589 412.9514,58.5269 404.6674,52.1019 C401.6484,49.7789 399.9454,47.5349 399.1714,46.2949 C397.4674,43.8179 394.7584,38.3229 394.7584,30.5019 C394.7584,26.8649 395.2224,18.4249 402.0354,10.9949 C407.1464,5.4989 416.0474,-0.0001 432.6154,-0.0001 C434.6264,-0.0001 445.6214,0.1549 453.5944,4.0259 C456.5364,5.4989 458.3164,7.0459 459.2464,7.9759 C460.6384,9.2129 461.9564,10.6849 462.8834,12.2319 C463.5034,13.1619 464.2774,15.0189 464.2774,15.0189 L444.9234,17.1089 C443.0664,15.0979 439.6604,12.3109 432.9234,12.3109 C431.2204,12.3109 426.2664,12.3879 421.9304,15.4839 C419.4544,17.2659 414.8864,21.7539 414.8864,29.9599 C414.8864,31.6639 415.0404,36.7729 418.5254,40.7989 C421.7004,44.5919 426.9634,46.2949 431.8394,46.2949 C440.6654,46.2949 445.9294,41.3399 447.3244,38.2449 C447.4014,38.0889 447.5554,37.3939 447.7104,36.7729 L433.4664,36.7729 L433.4664,24.3879 L466.0584,24.3879 L466.0584,57.1329 L449.1034,57.1329 Z M371.6194,57.1329 L345.6844,27.8709 L345.6844,57.1329 L326.3314,57.1329 L326.3314,2.4779 L342.5104,2.4779 L368.5994,31.2759 L368.5994,2.4779 L387.8764,2.4779 L387.8764,57.1329 L371.6194,57.1329 Z M297.2244,57.1329 L316.8094,57.1329 L316.8094,2.4779 L297.2244,2.4779 L297.2244,57.1329 Z M280.2024,57.1329 L259.2224,57.1329 L250.7074,23.0699 L242.0364,57.1329 L220.9004,57.1329 L207.6644,2.4779 L226.7864,2.4779 L232.8244,37.7029 L240.9534,2.4779 L260.9244,2.4779 L268.3574,37.5469 L274.3184,2.4779 L293.3624,2.4779 L280.2024,57.1329 Z M181.1944,16.5669 C180.4194,15.7929 178.5614,14.3999 175.9304,13.4719 C174.5374,13.0059 173.0654,12.6209 170.1244,12.6209 C167.5694,12.6209 165.4784,12.8529 163.0794,13.8579 C156.6534,16.5669 153.7104,23.1479 153.7104,29.8059 C153.7104,30.8119 153.7904,33.5999 154.7954,36.4629 C158.0464,46.2169 166.8734,46.9149 170.2024,46.9149 C171.1294,46.9149 174.6144,46.9149 177.5574,45.5989 C183.6714,42.8899 186.1494,35.9209 186.1494,29.7279 C186.1494,22.7609 183.2074,18.3489 181.1944,16.5669 L181.1944,16.5669 Z M194.2014,52.9539 C191.3354,54.8889 188.5484,56.2049 185.2964,57.1329 C182.1244,58.0619 177.3244,58.9919 169.5824,58.9919 C157.9704,58.9919 150.9254,56.4359 146.5124,53.8059 C145.0414,52.9539 142.3324,51.1719 139.6234,47.9209 C133.8164,40.8759 133.5844,33.7539 133.5844,30.2699 C133.5844,16.4909 140.9384,9.6009 145.4284,6.5819 C150.0734,3.4079 156.7314,0.6209 168.9624,0.4649 C171.4394,0.4649 173.8404,0.4649 176.3174,0.6979 C190.7934,1.8579 197.5284,7.5869 201.3234,13.0059 C203.1034,15.6399 206.2774,21.2899 206.2774,29.5739 C206.2774,34.4509 205.2704,45.4439 194.2014,52.9539 L194.2014,52.9539 Z M82.6514,57.1329 L82.6514,2.4779 L102.3154,2.4779 L102.3154,43.8179 L130.2614,43.8179 L130.2614,57.1329 L82.6514,57.1329 Z M57.1884,57.1329 L57.1884,51.0949 C55.9504,52.2559 55.0994,53.1069 52.2334,54.6569 C48.6734,56.5919 43.3324,58.7589 34.0414,58.7589 C30.5584,58.7589 21.0364,58.5269 12.7524,52.1019 C9.7334,49.7789 8.0294,47.5349 7.2564,46.2949 C5.5524,43.8179 2.8434,38.3229 2.8434,30.5019 C2.8434,26.8649 3.3084,18.4249 10.1204,10.9949 C15.2294,5.4989 24.1324,-0.0001 40.7004,-0.0001 C42.7114,-0.0001 53.7064,0.1549 61.6794,4.0259 C64.6214,5.4989 66.4004,7.0459 67.3314,7.9759 C68.7244,9.2129 70.0414,10.6849 70.9684,12.2319 C71.5884,13.1619 72.3614,15.0189 72.3614,15.0189 L53.0084,17.1089 C51.1504,15.0979 47.7454,12.3109 41.0084,12.3109 C39.3054,12.3109 34.3524,12.3879 30.0174,15.4839 C27.5394,17.2659 22.9714,21.7539 22.9714,29.9599 C22.9714,31.6639 23.1254,36.7729 26.6094,40.7989 C29.7854,44.5919 35.0484,46.2949 39.9254,46.2949 C48.7504,46.2949 54.0154,41.3399 55.4094,38.2449 C55.4854,38.0889 55.6414,37.3939 55.7954,36.7729 L41.5514,36.7729 L41.5514,24.3879 L74.1444,24.3879 L74.1444,57.1329 L57.1884,57.1329 Z" id="Fill-1"></path>
            <path d="M117.994,255.9574 L90.612,255.9574 L90.612,246.2054 C88.611,248.0814 87.236,249.4564 82.61,251.9564 C76.86,255.0824 68.232,258.5834 53.229,258.5834 C47.602,258.5834 32.224,258.2074 18.847,247.8304 C13.972,244.0804 11.22,240.4544 9.971,238.4534 C7.219,234.4534 2.844,225.5764 2.844,212.9484 C2.844,207.0724 3.593,193.4444 14.595,181.4414 C22.848,172.5654 37.225,163.6874 63.982,163.6874 C67.232,163.6874 84.987,163.9374 97.864,170.1894 C102.614,172.5654 105.489,175.0654 106.992,176.5664 C109.241,178.5664 111.367,180.9414 112.868,183.4414 C113.868,184.9424 115.117,187.9424 115.117,187.9424 L83.861,191.3184 C80.861,188.0684 75.359,183.5674 64.48,183.5674 C61.731,183.5674 53.729,183.6924 46.727,188.6934 C42.727,191.5694 35.351,198.8194 35.351,212.0734 C35.351,214.8234 35.6,223.0764 41.226,229.5774 C46.353,235.7034 54.855,238.4534 62.731,238.4534 C76.985,238.4534 85.485,230.4524 87.737,225.4514 C87.862,225.2014 88.111,224.0764 88.362,223.0764 L65.357,223.0764 L65.357,203.0714 L117.994,203.0714 L117.994,255.9574 Z M117.994,200.2284 L65.357,200.2284 L62.513,200.2284 L62.513,203.0714 L62.513,223.0764 L62.513,225.9204 L65.357,225.9204 L84.259,225.9204 C79.795,232.9444 68.962,235.6094 62.731,235.6094 C54.749,235.6094 47.525,232.6724 43.407,227.7524 C39.987,223.7994 38.195,218.3904 38.195,212.0734 C38.195,199.6684 45.323,193.2054 48.388,191.0024 C52.65,187.9574 58.067,186.4114 64.48,186.4114 C74.322,186.4114 79.062,190.3124 81.772,193.2484 L82.744,194.2994 L84.167,194.1444 L115.422,190.7694 L119.204,190.3624 L117.742,186.8504 C117.605,186.5194 116.384,183.6144 115.273,181.9234 C113.75,179.4014 111.564,176.8364 108.942,174.4954 C106.36,171.9314 102.971,169.5634 99.137,167.6444 C86.134,161.3334 68.942,160.8434 63.982,160.8434 C41.343,160.8434 24.026,167.1224 12.513,179.5044 C4.205,188.5674 0,199.8144 0,212.9484 C0,227.3384 5.28,236.6354 7.592,240.0134 C8.856,242.0244 11.749,245.9584 17.114,250.0844 C26.812,257.6084 38.966,261.4274 53.229,261.4274 C69.287,261.4274 78.463,257.4484 83.968,254.4554 C85.528,253.6124 86.755,252.8774 87.767,252.2064 L87.767,255.9574 L87.767,258.8014 L90.612,258.8014 L117.994,258.8014 L120.838,258.8014 L120.838,255.9574 L120.838,203.0714 L120.838,200.2284 L117.994,200.2284 Z" id="Fill-4"></path>
            <path d="M225.8807,249.2064 C221.2537,252.3314 216.7537,254.4574 211.5027,255.9574 C206.3767,257.4584 198.6237,258.9584 186.1207,258.9584 C167.3677,258.9584 155.9887,254.8324 148.8637,250.5824 C146.4887,249.2064 142.1107,246.3304 137.7357,241.0804 C128.3597,229.7014 127.9827,218.1994 127.9827,212.5734 C127.9827,190.3174 139.8617,179.1904 147.1127,174.3134 C154.6137,169.1884 165.3677,164.6874 185.1207,164.4374 C189.1217,164.4374 192.9967,164.4374 196.9977,164.8114 C220.3797,166.6874 231.2557,175.9394 237.3827,184.6914 C240.2577,188.9424 245.3847,198.0704 245.3847,211.4474 C245.3847,219.3234 243.7587,237.0784 225.8807,249.2064 M239.7377,183.0994 C230.8907,170.4604 216.9937,163.5634 197.2247,161.9774 C193.1297,161.5944 189.2387,161.5944 185.1207,161.5944 L185.1027,161.5944 L185.0847,161.5954 C162.8047,161.8764 151.8267,167.6484 145.5077,171.9664 C137.9117,177.0754 125.1387,189.1624 125.1387,212.5734 C125.1387,217.4124 125.1387,230.2664 135.5417,242.8894 C139.0317,247.0764 143.0307,250.4894 147.4377,253.0424 C157.1717,258.8494 170.1967,261.8024 186.1207,261.8024 C196.5747,261.8024 205.1387,260.7824 212.3017,258.6864 C217.7627,257.1264 222.5887,254.8604 227.4727,251.5624 C244.6287,239.9264 248.2287,223.3254 248.2287,211.4474 C248.2287,198.3924 243.6107,188.8244 239.7377,183.0994" id="Fill-6"></path>
            <path d="M197.8461,234.7279 C195.9221,235.5889 192.5091,236.6099 187.1211,236.6099 C179.2731,236.6099 169.0541,234.0199 164.9391,221.6769 C163.5421,217.6999 163.3361,213.7979 163.3361,211.8229 C163.3361,200.8719 168.3411,192.2239 176.7231,188.6879 C180.2511,187.2089 183.2701,186.9119 186.9951,186.9119 C191.4201,186.9119 193.5311,187.4929 195.4751,188.1409 C199.2161,189.4619 201.8861,191.4759 202.8661,192.4559 L202.9271,192.5169 L202.9921,192.5729 C206.2401,195.4479 210.0341,202.1809 210.0341,211.6979 C210.0341,220.2219 206.8321,230.7479 197.8461,234.7279 M204.8761,190.4439 C203.6241,189.1929 200.6241,186.9429 196.3741,185.4419 C194.1221,184.6919 191.7471,184.0679 186.9951,184.0679 C182.8711,184.0679 179.4961,184.4419 175.6181,186.0679 C165.2421,190.4439 160.4921,201.0709 160.4921,211.8229 C160.4921,213.4489 160.6161,217.9499 162.2411,222.5759 C167.4931,238.3289 181.7451,239.4539 187.1211,239.4539 C188.6211,239.4539 194.2481,239.4539 198.9981,237.3279 C208.8761,232.9529 212.8771,221.6999 212.8771,211.6979 C212.8771,200.4459 208.1251,193.3189 204.8761,190.4439" id="Fill-9"></path>
            <path d="M465.6561,255.9574 L371.3861,255.9574 L371.3861,167.6884 L464.5321,167.6884 L464.5321,187.4424 L403.0191,187.4424 L403.0191,201.9464 L459.9061,201.9464 L459.9061,221.8244 L403.0191,221.8244 L403.0191,235.9534 L465.6561,235.9534 L465.6561,255.9574 Z M465.6561,233.1094 L405.8631,233.1094 L405.8631,224.6684 L459.9061,224.6684 L462.7501,224.6684 L462.7501,221.8244 L462.7501,201.9464 L462.7501,199.1024 L459.9061,199.1024 L405.8631,199.1024 L405.8631,190.2864 L464.5321,190.2864 L467.3761,190.2864 L467.3761,187.4424 L467.3761,167.6884 L467.3761,164.8444 L464.5321,164.8444 L371.3861,164.8444 L368.5431,164.8444 L368.5431,167.6884 L368.5431,255.9574 L368.5431,258.8014 L371.3861,258.8014 L465.6561,258.8014 L468.5001,258.8014 L468.5001,255.9574 L468.5001,235.9534 L468.5001,233.1094 L465.6561,233.1094 Z" id="Fill-13"></path>
            <path d="M356.3944,255.9574 L330.1374,255.9574 L288.2544,208.6974 L288.2544,255.9574 L256.9974,255.9574 L256.9974,167.6884 L283.1274,167.6884 L325.2624,214.1984 L325.2624,167.6884 L356.3944,167.6884 L356.3944,255.9574 Z M356.3944,164.8444 L325.2624,164.8444 L322.4184,164.8444 L322.4184,167.6884 L322.4184,206.8234 L285.2364,165.7794 L284.3884,164.8444 L283.1274,164.8444 L256.9974,164.8444 L254.1534,164.8444 L254.1534,167.6884 L254.1534,255.9574 L254.1534,258.8014 L256.9974,258.8014 L288.2544,258.8014 L291.0984,258.8014 L291.0984,255.9574 L291.0984,216.1944 L328.0094,257.8434 L328.8574,258.8014 L330.1374,258.8014 L356.3944,258.8014 L359.2394,258.8014 L359.2394,255.9574 L359.2394,167.6884 L359.2394,164.8444 L356.3944,164.8444 Z" id="Fill-11"></path>
        </g>
    </g>
</svg>