<?xml version="1.0" encoding="UTF-8"?>
<svg width="627px" height="88px" viewBox="0 0 627 88" version="1.1" xmlns="http://www.w3.org/2000/svg" xmlns:xlink="http://www.w3.org/1999/xlink">
    <!-- Generator: Sketch 55.2 (78181) - https://sketchapp.com -->
    <title>Reformation.</title>
    <desc>Created with Sketch.</desc>
    <g id="Socials" stroke="none" stroke-width="1" fill="none" fill-rule="evenodd">
        <g id="Logo" transform="translate(-289.000000, -270.000000)" fill="#000000" fill-rule="nonzero">
            <path d="M346.637143,294.44 C346.637143,300.68 344.877142,305.879999 341.357143,310.04 C337.837143,314.200001 333.197143,316.960001 327.437143,318.32 L349.997143,356 L337.277143,356 L315.917143,319.04 L299.597143,319.04 L299.597143,356 L289.277143,356 L289.277143,272 L318.797143,272 C321.277143,272 324.117142,272.279999 327.317143,272.84 C330.517143,273.400001 333.557143,274.480001 336.437143,276.08 C339.317143,277.679999 341.737143,279.940001 343.697143,282.86 C345.657142,285.779999 346.637143,289.64 346.637143,294.44 Z M336.197143,295.04 C336.197143,290 334.497142,286.300001 331.097143,283.94 C327.697143,281.579999 322.757143,280.4 316.277143,280.4 L299.597143,280.4 L299.597143,310.76 L318.077143,310.76 C321.357142,310.76 324.137143,310.34 326.417143,309.5 C328.697143,308.66 330.557143,307.52 331.997143,306.08 C333.437143,304.64 334.497142,302.980001 335.177143,301.1 C335.857143,299.219999 336.197143,297.2 336.197143,295.04 Z M405.094286,343.04 C402.934286,347.36 399.994286,350.84 396.274286,353.48 C392.554286,356.12 387.734285,357.44 381.814286,357.44 C377.574286,357.44 373.774286,356.699999 370.414286,355.22 C367.054286,353.740001 364.214285,351.659999 361.894286,348.98 C359.574286,346.300001 357.814286,343.139999 356.614286,339.5 C355.414286,335.860001 354.814286,331.88 354.814286,327.56 C354.814286,323.320001 355.434286,319.379999 356.674286,315.74 C357.914285,312.100001 359.674286,308.96 361.954286,306.32 C364.234286,303.68 367.034285,301.619999 370.354286,300.14 C373.674286,298.660001 377.374286,297.92 381.454286,297.92 C385.774286,297.92 389.534285,298.7 392.734286,300.26 C395.934286,301.82 398.594285,303.899999 400.714286,306.5 C402.834286,309.100001 404.414285,312.100001 405.454286,315.5 C406.494286,318.899999 407.014286,322.439999 407.014286,326.12 L407.014286,329.48 L365.134286,329.48 C365.214286,332.12 365.614286,334.660001 366.334286,337.1 C367.054286,339.539999 368.074286,341.699999 369.394286,343.58 C370.714286,345.460001 372.414286,346.94 374.494286,348.02 C376.574285,349.1 379.054286,349.64 381.934286,349.64 C385.854286,349.64 388.854286,348.760001 390.934286,347 C393.014285,345.239999 394.774286,342.719999 396.214286,339.44 L405.094286,343.04 Z M381.214286,305.72 C376.654286,305.72 373.014286,307.259999 370.294286,310.34 C367.574285,313.420001 365.974286,317.279999 365.494286,321.92 L396.694286,321.92 C396.454286,316.88 394.914286,312.92 392.074286,310.04 C389.234285,307.16 385.614286,305.72 381.214286,305.72 Z M410.391429,299.36 L419.991429,299.36 L419.991429,288.68 C419.991429,285.32 420.531429,282.479999 421.611429,280.16 C422.691429,277.840001 424.091429,275.980001 425.811429,274.58 C427.531428,273.179999 429.491429,272.159999 431.691429,271.52 C433.891429,270.880001 436.111428,270.56 438.351429,270.56 C440.991429,270.56 443.571429,270.899999 446.091429,271.58 C448.611429,272.260001 450.551429,273.08 451.911429,274.04 L447.471429,282.2 C446.591429,281.48 445.431429,280.82 443.991429,280.22 C442.551429,279.62 440.911428,279.32 439.071429,279.32 C436.111428,279.32 433.871429,280.199999 432.351429,281.96 C430.831428,283.720001 430.071429,286.16 430.071429,289.28 L430.071429,299.36 L443.271429,299.36 L443.271429,307.04 L430.071429,307.04 L430.071429,356 L419.991429,356 L419.991429,307.04 L410.391429,307.04 L410.391429,299.36 Z M474.968571,297.92 C479.288571,297.92 483.128571,298.660001 486.488571,300.14 C489.848571,301.619999 492.708571,303.68 495.068571,306.32 C497.428572,308.96 499.208571,312.100001 500.408571,315.74 C501.608571,319.379999 502.208571,323.36 502.208571,327.68 C502.208571,332 501.608571,335.980001 500.408571,339.62 C499.208571,343.259999 497.428572,346.4 495.068571,349.04 C492.708571,351.68 489.848571,353.740001 486.488571,355.22 C483.128571,356.699999 479.288571,357.44 474.968571,357.44 C470.648571,357.44 466.808571,356.699999 463.448571,355.22 C460.088571,353.740001 457.228571,351.68 454.868571,349.04 C452.508571,346.4 450.728571,343.259999 449.528571,339.62 C448.328571,335.980001 447.728571,332 447.728571,327.68 C447.728571,323.36 448.328571,319.379999 449.528571,315.74 C450.728571,312.100001 452.508571,308.96 454.868571,306.32 C457.228571,303.68 460.088571,301.619999 463.448571,300.14 C466.808571,298.660001 470.648571,297.92 474.968571,297.92 Z M474.968571,349.4 C477.768571,349.4 480.228571,348.820001 482.348571,347.66 C484.468572,346.499999 486.228571,344.939999 487.628571,342.98 C489.028572,341.020001 490.068571,338.72 490.748571,336.08 C491.428572,333.44 491.768571,330.640001 491.768571,327.68 C491.768571,324.719999 491.428572,321.92 490.748571,319.28 C490.068571,316.64 489.028572,314.339999 487.628571,312.38 C486.228571,310.420001 484.468572,308.860001 482.348571,307.7 C480.228571,306.539999 477.768571,305.96 474.968571,305.96 C472.168571,305.96 469.708572,306.539999 467.588571,307.7 C465.468571,308.860001 463.708572,310.420001 462.308571,312.38 C460.908571,314.339999 459.868572,316.64 459.188571,319.28 C458.508571,321.92 458.168571,324.719999 458.168571,327.68 C458.168571,330.640001 458.508571,333.44 459.188571,336.08 C459.868572,338.72 460.908571,341.020001 462.308571,342.98 C463.708572,344.939999 465.468571,346.499999 467.588571,347.66 C469.708572,348.820001 472.168571,349.4 474.968571,349.4 Z M545.665714,308.6 C544.865714,307.88 543.925714,307.300001 542.845714,306.86 C541.765714,306.42 540.545714,306.2 539.185714,306.2 C537.265714,306.2 535.445714,306.659999 533.725714,307.58 C532.005715,308.500001 530.505715,309.8 529.225714,311.48 C527.945714,313.16 526.925714,315.179999 526.165714,317.54 C525.405715,319.900001 525.025714,322.52 525.025714,325.4 L525.025714,356 L514.945714,356 L514.945714,299.36 L524.425714,299.36 L524.425714,308.24 C525.865714,304.799999 528.085714,302.219999 531.085714,300.5 C534.085714,298.780001 537.385714,297.92 540.985714,297.92 C542.105714,297.92 543.285715,298.019999 544.525714,298.22 C545.765714,298.42 546.905714,298.76 547.945714,299.24 L545.665714,308.6 Z M556.002857,299.36 L565.482857,299.36 L565.482857,307.88 C567.322857,304.840001 569.602857,302.42 572.322857,300.62 C575.042858,298.82 578.442857,297.92 582.522857,297.92 C586.522857,297.92 590.022857,298.799999 593.022857,300.56 C596.022857,302.320001 598.202858,304.88 599.562857,308.24 C600.362858,306.959999 601.362857,305.699999 602.562857,304.46 C603.762857,303.220001 605.162858,302.12 606.762857,301.16 C608.362857,300.2 610.102857,299.42 611.982857,298.82 C613.862858,298.22 615.842858,297.92 617.922857,297.92 C620.482857,297.92 622.902857,298.319999 625.182857,299.12 C627.462857,299.92 629.442857,301.1 631.122857,302.66 C632.802857,304.22 634.142858,306.179999 635.142857,308.54 C636.142857,310.900001 636.642857,313.64 636.642857,316.76 L636.642857,356 L626.562857,356 L626.562857,318.32 C626.562857,316.16 626.242857,314.320001 625.602857,312.8 C624.962858,311.279999 624.142857,310.019999 623.142857,309.02 C622.142858,308.020001 620.982857,307.300001 619.662857,306.86 C618.342857,306.42 617.002857,306.2 615.642857,306.2 C613.802858,306.2 612.022857,306.640001 610.302857,307.52 C608.582858,308.399999 607.062857,309.640001 605.742857,311.24 C604.422857,312.839999 603.362858,314.819999 602.562857,317.18 C601.762857,319.540001 601.362857,322.199999 601.362857,325.16 L601.362857,356 L591.282857,356 L591.282857,318.32 C591.282857,316.16 590.962857,314.320001 590.322857,312.8 C589.682858,311.279999 588.842858,310.019999 587.802857,309.02 C586.762857,308.020001 585.582857,307.300001 584.262857,306.86 C582.942857,306.42 581.602857,306.2 580.242857,306.2 C578.402858,306.2 576.642857,306.640001 574.962857,307.52 C573.282857,308.399999 571.782857,309.640001 570.462857,311.24 C569.142857,312.839999 568.082858,314.819999 567.282857,317.18 C566.482857,319.540001 566.082857,322.199999 566.082857,325.16 L566.082857,356 L556.002857,356 L556.002857,299.36 Z M687.42,356 C687.099999,355.360001 686.8,354.359999 686.52,353 C686.240001,351.640001 686.1,350.159999 686.1,348.56 C684.020001,351.119999 681.459999,353.24 678.42,354.92 C675.380001,356.6 671.499999,357.44 666.78,357.44 C664.14,357.44 661.700001,357.059999 659.46,356.3 C657.219999,355.540001 655.26,354.479999 653.58,353.12 C651.9,351.760001 650.600001,350.080001 649.68,348.08 C648.759999,346.079999 648.3,343.88 648.3,341.48 C648.3,337.720001 649.32,334.58 651.36,332.06 C653.4,329.54 656.16,327.539999 659.64,326.06 C663.12,324.580001 667.14,323.54 671.7,322.94 C676.26,322.34 681.020001,322.04 685.98,322.04 L685.98,318.56 C685.98,314.72 684.980001,311.6 682.98,309.2 C680.979999,306.8 677.82,305.6 673.5,305.6 C669.18,305.6 666,306.659999 663.96,308.78 C661.92,310.900001 660.819999,313.480001 660.66,316.52 L650.58,315.08 C650.900001,312.2 651.740001,309.700001 653.1,307.58 C654.459999,305.459999 656.199999,303.68 658.32,302.24 C660.440001,300.8 662.840001,299.72 665.52,299 C668.199999,298.28 670.98,297.92 673.86,297.92 C680.660001,297.92 686.019999,299.680001 689.94,303.2 C693.860001,306.719999 695.82,311.519999 695.82,317.6 L695.82,348.32 C695.82,350.159999 695.94,351.62 696.18,352.7 C696.42,353.78 696.740001,354.880001 697.14,356 L687.42,356 Z M669.78,349.64 C671.859999,349.64 673.880001,349.28 675.84,348.56 C677.799999,347.84 679.520001,346.82 681,345.5 C682.479999,344.18 683.679999,342.56 684.6,340.64 C685.520001,338.72 685.98,336.56 685.98,334.16 L685.98,329.24 C681.9,329.24 678.18,329.459999 674.82,329.9 C671.46,330.340001 668.58,331.019999 666.18,331.94 C663.78,332.860001 661.899999,334.060001 660.54,335.54 C659.180001,337.019999 658.5,338.759999 658.5,340.76 C658.5,343.64 659.52,345.839999 661.56,347.36 C663.6,348.880001 666.339999,349.64 669.78,349.64 Z M737.837143,355.16 C736.717143,355.799999 735.257143,356.339999 733.457143,356.78 C731.657143,357.220001 729.717142,357.44 727.637143,357.44 C725.157142,357.44 722.997142,357.059999 721.157143,356.3 C719.317143,355.540001 717.797143,354.520001 716.597143,353.24 C715.397143,351.959999 714.497143,350.48 713.897143,348.8 C713.297143,347.12 712.997143,345.359999 712.997143,343.52 L712.997143,307.04 L703.397143,307.04 L703.397143,299.36 L712.997143,299.36 L712.997143,283.16 L723.077143,278.6 L723.077143,299.36 L736.277143,299.36 L736.277143,307.04 L723.077143,307.04 L723.077143,342.56 C723.077143,344.639999 723.597142,346.240001 724.637143,347.36 C725.677143,348.479999 727.117143,349.04 728.957143,349.04 C729.997143,349.04 730.997143,348.880001 731.957143,348.56 C732.917143,348.239999 733.797142,347.800001 734.597143,347.24 L737.837143,355.16 Z M746.734286,277.28 C746.734286,275.279999 747.354286,273.68 748.594286,272.48 C749.834285,271.28 751.414286,270.68 753.334286,270.68 C755.254286,270.68 756.834286,271.28 758.074286,272.48 C759.314285,273.68 759.934286,275.279999 759.934286,277.28 C759.934286,279.040001 759.314285,280.559999 758.074286,281.84 C756.834286,283.120001 755.254286,283.76 753.334286,283.76 C751.414286,283.76 749.834285,283.120001 748.594286,281.84 C747.354286,280.559999 746.734286,279.040001 746.734286,277.28 Z M748.294286,299.36 L758.374286,299.36 L758.374286,356 L748.294286,356 L748.294286,299.36 Z M798.351429,297.92 C802.671429,297.92 806.511429,298.660001 809.871429,300.14 C813.231429,301.619999 816.091428,303.68 818.451429,306.32 C820.811429,308.96 822.591429,312.100001 823.791429,315.74 C824.991429,319.379999 825.591429,323.36 825.591429,327.68 C825.591429,332 824.991429,335.980001 823.791429,339.62 C822.591429,343.259999 820.811429,346.4 818.451429,349.04 C816.091428,351.68 813.231429,353.740001 809.871429,355.22 C806.511429,356.699999 802.671429,357.44 798.351429,357.44 C794.031429,357.44 790.191429,356.699999 786.831429,355.22 C783.471429,353.740001 780.611429,351.68 778.251429,349.04 C775.891428,346.4 774.111429,343.259999 772.911429,339.62 C771.711429,335.980001 771.111429,332 771.111429,327.68 C771.111429,323.36 771.711429,319.379999 772.911429,315.74 C774.111429,312.100001 775.891428,308.96 778.251429,306.32 C780.611429,303.68 783.471429,301.619999 786.831429,300.14 C790.191429,298.660001 794.031429,297.92 798.351429,297.92 Z M798.351429,349.4 C801.151428,349.4 803.611428,348.820001 805.731429,347.66 C807.851429,346.499999 809.611428,344.939999 811.011429,342.98 C812.411429,341.020001 813.451428,338.72 814.131429,336.08 C814.811429,333.44 815.151429,330.640001 815.151429,327.68 C815.151429,324.719999 814.811429,321.92 814.131429,319.28 C813.451428,316.64 812.411429,314.339999 811.011429,312.38 C809.611428,310.420001 807.851429,308.860001 805.731429,307.7 C803.611428,306.539999 801.151428,305.96 798.351429,305.96 C795.551429,305.96 793.091429,306.539999 790.971429,307.7 C788.851428,308.860001 787.091429,310.420001 785.691429,312.38 C784.291428,314.339999 783.251429,316.64 782.571429,319.28 C781.891428,321.92 781.551429,324.719999 781.551429,327.68 C781.551429,330.640001 781.891428,333.44 782.571429,336.08 C783.251429,338.72 784.291428,341.020001 785.691429,342.98 C787.091429,344.939999 788.851428,346.499999 790.971429,347.66 C793.091429,348.820001 795.551429,349.4 798.351429,349.4 Z M838.328571,299.36 L847.808571,299.36 L847.808571,307.88 C849.808572,304.840001 852.228571,302.42 855.068571,300.62 C857.908572,298.82 861.448572,297.92 865.688571,297.92 C868.408572,297.92 871.008571,298.319999 873.488571,299.12 C875.968572,299.92 878.108571,301.1 879.908571,302.66 C881.708571,304.22 883.148571,306.179999 884.228571,308.54 C885.308571,310.900001 885.848571,313.64 885.848571,316.76 L885.848571,356 L875.768571,356 L875.768571,318.32 C875.768571,316.16 875.408571,314.320001 874.688571,312.8 C873.968571,311.279999 873.028572,310.019999 871.868571,309.02 C870.708571,308.020001 869.408571,307.300001 867.968571,306.86 C866.528571,306.42 865.088571,306.2 863.648571,306.2 C861.648571,306.2 859.728571,306.640001 857.888571,307.52 C856.048572,308.399999 854.428572,309.640001 853.028571,311.24 C851.628571,312.839999 850.508571,314.819999 849.668571,317.18 C848.828571,319.540001 848.408571,322.199999 848.408571,325.16 L848.408571,356 L838.328571,356 L838.328571,299.36 Z M901.105714,350 C901.105714,347.999999 901.765714,346.360001 903.085714,345.08 C904.405714,343.799999 906.105714,343.16 908.185714,343.16 C910.265714,343.16 911.965714,343.799999 913.285714,345.08 C914.605714,346.360001 915.265714,347.999999 915.265714,350 C915.265714,352.000001 914.605714,353.639999 913.285714,354.92 C911.965714,356.200001 910.265714,356.84 908.185714,356.84 C906.105714,356.84 904.405714,356.200001 903.085714,354.92 C901.765714,353.639999 901.105714,352.000001 901.105714,350 Z" id="Reformation."></path>
        </g>
    </g>
</svg>